<svg width="25" height="28" viewBox="0 0 25 28" fill="none" xmlns="http://www.w3.org/2000/svg">
<path opacity="0.6" fill-rule="evenodd" clip-rule="evenodd" d="M5.97811 16.0466C4.73547 18.1989 5.47291 20.9511 7.62523 22.1937C9.77755 23.4364 12.5297 22.6989 13.7724 20.5466L15.5044 21.5466C13.7095 24.6555 9.73413 25.7207 6.62523 23.9258C3.51633 22.1309 2.45114 18.1555 4.24606 15.0466L5.97811 16.0466Z" fill="white"/>
<path opacity="0.6" fill-rule="evenodd" clip-rule="evenodd" d="M16.0762 4.55632C14.6413 3.72789 12.8066 4.21952 11.9781 5.6544L10.2461 4.6544C11.6268 2.26293 14.6848 1.44356 17.0762 2.82427C19.4677 4.20498 20.2871 7.26293 18.9063 9.6544L17.1743 8.6544C18.0027 7.21952 17.5111 5.38475 16.0762 4.55632Z" fill="white"/>
<path opacity="0.6" fill-rule="evenodd" clip-rule="evenodd" d="M11.281 20.8114C10.3844 21.0517 9.42903 20.9259 8.62513 20.4618C7.82124 19.9976 7.23464 19.2332 6.99439 18.3365C6.75414 17.4399 6.87991 16.4846 7.34404 15.6807L9.07609 16.6807C8.87718 17.0252 8.82328 17.4346 8.92624 17.8189C9.02921 18.2032 9.2806 18.5308 9.62513 18.7297C9.96966 18.9286 10.3791 18.9825 10.7634 18.8796C11.1477 18.7766 11.4753 18.5252 11.6742 18.1807L13.4062 19.1807C12.9421 19.9846 12.1777 20.5712 11.281 20.8114L11.0222 19.8455L11.281 20.8114Z" fill="white"/>
<path opacity="0.6" d="M10.246 4.6543L11.978 5.6543L5.97808 16.0466L4.24603 15.0466L10.246 4.6543Z" fill="white"/>
<path opacity="0.6" d="M17.1743 8.6543L18.9064 9.6543L13.4064 19.1806L11.6743 18.1806L17.1743 8.6543Z" fill="white"/>
<path opacity="0.6" d="M12.8442 6.1543L14.5763 7.1543L9.07629 16.6806L7.34424 15.6806L12.8442 6.1543Z" fill="white"/>
<path opacity="0.6" d="M19.7725 10.1543L21.5045 11.1543L15.5045 21.5466L13.7725 20.5466L19.7725 10.1543Z" fill="white"/>
</svg>
