<svg width="24" height="25" viewBox="0 0 24 25" fill="none" xmlns="http://www.w3.org/2000/svg">
<path fill-rule="evenodd" clip-rule="evenodd" d="M12 23.8276L12.6577 23.2533C18.1887 18.4237 21 14.2068 21 10.5C21 5.25066 16.9029 1.5 12 1.5C7.09705 1.5 3 5.25066 3 10.5C3 14.2068 5.81131 18.4237 11.3423 23.2533L12 23.8276ZM12 21.1634C7.30661 16.9335 5 13.3492 5 10.5C5 6.3966 8.16411 3.5 12 3.5C15.8359 3.5 19 6.3966 19 10.5C19 13.3492 16.6934 16.9335 12 21.1634ZM12 5.5C14.7614 5.5 17 7.73858 17 10.5C17 13.2614 14.7614 15.5 12 15.5C9.23858 15.5 7 13.2614 7 10.5C7 7.73858 9.23858 5.5 12 5.5ZM9 10.5C9 8.84315 10.3431 7.5 12 7.5C13.6569 7.5 15 8.84315 15 10.5C15 12.1569 13.6569 13.5 12 13.5C10.3431 13.5 9 12.1569 9 10.5Z" fill="#FFA800"/>
</svg>
