<svg width="18" height="21" viewBox="0 0 18 21" fill="none" xmlns="http://www.w3.org/2000/svg">
<path fill-rule="evenodd" clip-rule="evenodd" d="M17.2812 10.6058C17.088 9.88825 16.5223 9.32248 15.8047 9.12929C14.4938 8.77051 9.25005 8.77051 9.25005 8.77051C9.25005 8.77051 4.00633 8.77051 2.6954 9.11549C1.99164 9.30868 1.41207 9.88825 1.21888 10.6058C0.873901 11.9167 0.873901 14.6352 0.873901 14.6352C0.873901 14.6352 0.873901 17.3674 1.21888 18.6646C1.41207 19.3821 1.97784 19.9479 2.6954 20.1411C4.02013 20.4999 9.25005 20.4999 9.25005 20.4999C9.25005 20.4999 14.4938 20.4999 15.8047 20.1549C16.5223 19.9617 17.088 19.3959 17.2812 18.6784C17.6262 17.3674 17.6262 14.649 17.6262 14.649C17.6262 14.649 17.64 11.9167 17.2812 10.6058ZM13.8606 15.9628V16.2067C13.8606 16.5137 13.8696 16.7486 13.8877 16.9021C13.9058 17.0556 13.9419 17.173 14.0051 17.2362C14.0593 17.3085 14.1496 17.3446 14.276 17.3446C14.4386 17.3446 14.547 17.2814 14.6102 17.155C14.6734 17.0285 14.7005 16.8208 14.7095 16.5228L15.6398 16.577C15.6488 16.6221 15.6488 16.6763 15.6488 16.7486C15.6488 17.1911 15.5314 17.5252 15.2875 17.742C15.0437 17.9587 14.7005 18.0671 14.258 18.0671C13.7251 18.0671 13.3549 17.8955 13.1381 17.5614C12.9214 17.2272 12.813 16.7124 12.813 16.008V15.1681C12.813 14.4456 12.9214 13.9218 13.1472 13.5877C13.3729 13.2535 13.7522 13.0909 14.2851 13.0909C14.6554 13.0909 14.9444 13.1632 15.143 13.2987C15.3417 13.4341 15.4772 13.6509 15.5585 13.9308C15.6398 14.2198 15.6759 14.6172 15.6759 15.1229V15.9448H13.8606V15.9628ZM13.9961 13.9399C13.9419 14.0121 13.9058 14.1205 13.8877 14.274C13.8696 14.4276 13.8606 14.6624 13.8606 14.9785V15.3216H14.6554V14.9785C14.6554 14.6714 14.6463 14.4366 14.6283 14.274C14.6102 14.1115 14.565 14.0031 14.5109 13.9399C14.4567 13.8767 14.3664 13.8405 14.258 13.8405C14.1315 13.8315 14.0503 13.8676 13.9961 13.9399ZM8.64058 18.0129V13.1993H7.55684V17.0195C7.52072 17.1098 7.4575 17.182 7.36719 17.2362C7.27688 17.2994 7.18657 17.3265 7.09625 17.3265C6.98788 17.3265 6.9066 17.2814 6.86144 17.191C6.81629 17.1007 6.7892 16.9472 6.7892 16.7305V13.1993H5.70546V16.7937C5.70546 17.2452 5.77771 17.5703 5.93124 17.7781C6.08477 17.9858 6.31958 18.0942 6.63567 18.0942C7.09625 18.0942 7.44847 17.8684 7.67425 17.4259H7.70134L7.79165 18.0129H8.64058ZM6.03058 12.2961H4.95587V18.0038H3.89923V12.2961H2.82452V11.4201H6.03058V12.2961ZM11.9099 13.3076C12.0544 13.4431 12.1628 13.6598 12.226 13.9669C12.2892 14.2649 12.3163 14.6894 12.3254 15.2403V15.9989C12.3254 16.7124 12.235 17.2452 12.0635 17.5793C11.8919 17.9135 11.63 18.0851 11.2597 18.0851C11.052 18.0851 10.8713 18.0309 10.6998 17.9406C10.5282 17.8412 10.4017 17.7148 10.3204 17.5523H10.2934L10.185 18.0038H9.29089V11.1763H10.3385V13.714H10.3475C10.4378 13.5334 10.5733 13.3799 10.7449 13.2715C10.9165 13.1541 11.1062 13.0999 11.3048 13.0999C11.5577 13.0999 11.7654 13.1722 11.9099 13.3076ZM11.1874 16.7485C11.2145 16.5498 11.2326 16.2789 11.2326 15.9266H11.2416V15.2945C11.2416 14.9242 11.2326 14.6352 11.2055 14.4275C11.1784 14.2288 11.1423 14.0843 11.0791 13.994C11.0249 13.9127 10.9346 13.8675 10.8262 13.8675C10.7268 13.8675 10.6275 13.9127 10.5372 13.994C10.4469 14.0843 10.3837 14.1927 10.3475 14.3191V17.0465C10.3927 17.1278 10.4559 17.191 10.5282 17.2362C10.6004 17.2813 10.6817 17.2994 10.772 17.2994C10.8804 17.2994 10.9707 17.2542 11.0429 17.1729C11.1062 17.0917 11.1603 16.9472 11.1874 16.7485Z" fill="white"/>
<path d="M8.23416 6.94837C8.01742 6.80388 7.86389 6.5781 7.77357 6.26201C7.68326 5.95495 7.63811 5.53952 7.63811 5.03377V4.33838C7.63811 3.8236 7.69229 3.40817 7.79164 3.09208C7.90001 2.77599 8.06257 2.55021 8.27932 2.40571C8.5051 2.26121 8.79409 2.18896 9.15534 2.18896C9.50755 2.18896 9.79655 2.26121 10.0133 2.40571C10.23 2.55021 10.3836 2.78502 10.4829 3.09208C10.5823 3.39914 10.6364 3.81457 10.6364 4.33838V5.03377C10.6364 5.54855 10.5913 5.95495 10.4919 6.27104C10.3926 6.5781 10.2391 6.81291 10.0223 6.9574C9.80558 7.1019 9.50755 7.17415 9.13728 7.17415C8.75797 7.16512 8.45091 7.09287 8.23416 6.94837ZM9.45337 6.18976C9.51658 6.03623 9.54368 5.77433 9.54368 5.42211V3.92294C9.54368 3.57976 9.51658 3.32689 9.45337 3.16433C9.39015 3.00177 9.29081 2.92952 9.13728 2.92952C8.99278 2.92952 8.8844 3.0108 8.83022 3.16433C8.767 3.32689 8.73991 3.57976 8.73991 3.92294V5.42211C8.73991 5.77433 8.767 6.03623 8.83022 6.18976C8.8844 6.34329 8.99278 6.42457 9.14631 6.42457C9.2908 6.42457 9.39015 6.35232 9.45337 6.18976Z" fill="white"/>
<path d="M5.59701 4.95235L4.36877 0.5H5.44348L5.87697 2.51394C5.98535 3.01066 6.06663 3.43512 6.12081 3.78733H6.14791C6.18403 3.53446 6.26531 3.11903 6.39175 2.52297L6.84331 0.5H7.91801L6.67171 4.95235V7.0837H5.60604V4.95235H5.59701Z" fill="white"/>
<path d="M14.1315 2.2793V7.09289H13.2826L13.1923 6.50587H13.1652C12.9394 6.94839 12.5872 7.17417 12.1266 7.17417C11.8105 7.17417 11.5757 7.0658 11.4222 6.85808C11.2686 6.65037 11.1964 6.32525 11.1964 5.87369V2.2793H12.2801V5.81047C12.2801 6.02722 12.3072 6.18075 12.3524 6.27106C12.3975 6.36137 12.4788 6.40653 12.5872 6.40653C12.6775 6.40653 12.7678 6.37943 12.8581 6.31621C12.9484 6.26203 13.0116 6.18978 13.0478 6.09947V2.2793H14.1315Z" fill="white"/>
</svg>
