<svg width="18" height="18" viewBox="0 0 18 18" fill="none" xmlns="http://www.w3.org/2000/svg">
<path d="M15.2192 2.75718C13.6111 1.10177 11.3881 0.203125 9.11783 0.203125C4.2935 0.203125 0.415126 4.1288 0.462423 8.90583C0.462423 10.4193 0.888099 11.8856 1.59756 13.2099L0.367828 17.7031L4.95567 16.5207C6.23269 17.2302 7.65161 17.5612 9.07053 17.5612C13.8476 17.5612 17.7259 13.6356 17.7259 8.85853C17.7259 6.54096 16.8273 4.36529 15.2192 2.75718ZM9.11783 16.095C7.8408 16.095 6.56377 15.7639 5.47594 15.1018L5.19215 14.9599L2.44891 15.6693L3.15837 12.9734L2.96918 12.6896C0.888099 9.3315 1.88134 4.88556 5.28675 2.80448C8.69215 0.723395 13.0908 1.71664 15.1719 5.12204C17.253 8.52745 16.2597 12.9261 12.8543 15.0072C11.7665 15.7166 10.4422 16.095 9.11783 16.095ZM13.28 10.845L12.7597 10.6085C12.7597 10.6085 12.003 10.2774 11.53 10.041C11.4827 10.041 11.4354 9.99367 11.3881 9.99367C11.2462 9.99367 11.1516 10.041 11.057 10.0883C11.057 10.0883 11.0097 10.1356 10.3476 10.8923C10.3003 10.9869 10.2057 11.0342 10.1111 11.0342H10.0638C10.0165 11.0342 9.92188 10.9869 9.87459 10.9396L9.6381 10.845C9.11783 10.6085 8.64486 10.3247 8.26648 9.94637C8.17188 9.85177 8.02999 9.75718 7.9354 9.66258C7.60432 9.3315 7.27323 8.95312 7.03675 8.52745L6.98945 8.43285C6.94215 8.38556 6.94215 8.33826 6.89486 8.24367C6.89486 8.14907 6.89486 8.05448 6.94215 8.00718C6.94215 8.00718 7.13134 7.77069 7.27323 7.6288C7.36783 7.53421 7.41513 7.39231 7.50972 7.29772C7.60432 7.15583 7.65161 6.96664 7.60431 6.82475C7.55702 6.58826 6.98945 5.31123 6.84756 5.02745C6.75296 4.88556 6.65837 4.83826 6.51648 4.79096H6.37459C6.27999 4.79096 6.1381 4.79096 5.99621 4.79096C5.90161 4.79096 5.80702 4.83826 5.71242 4.83826L5.66513 4.88556C5.57053 4.93285 5.47594 5.02745 5.38134 5.07475C5.28675 5.16934 5.23945 5.26394 5.14486 5.35853C4.81377 5.78421 4.62459 6.30448 4.62459 6.82475C4.62459 7.20312 4.71918 7.5815 4.86107 7.91258L4.90837 8.05448C5.33404 8.95312 5.90161 9.75718 6.65837 10.4666L6.84756 10.6558C6.98945 10.7977 7.13134 10.8923 7.22594 11.0342C8.21918 11.8856 9.35432 12.5004 10.6313 12.8315C10.7732 12.8788 10.9624 12.8788 11.1043 12.9261C11.2462 12.9261 11.4354 12.9261 11.5773 12.9261C11.8138 12.9261 12.0976 12.8315 12.2867 12.7369C12.4286 12.6423 12.5232 12.6423 12.6178 12.5477L12.7124 12.4531C12.807 12.3585 12.9016 12.3112 12.9962 12.2166C13.0908 12.122 13.1854 12.0274 13.2327 11.9329C13.3273 11.7437 13.3746 11.5072 13.4219 11.2707C13.4219 11.1761 13.4219 11.0342 13.4219 10.9396C13.4219 10.9396 13.3746 10.8923 13.28 10.845Z" fill="white"/>
</svg>
