<svg width="19" height="16" viewBox="0 0 19 16" fill="none" xmlns="http://www.w3.org/2000/svg">
<path d="M16.6016 4.25781C16.6016 4.42188 16.6016 4.58594 16.6016 4.72656C16.6016 9.57812 12.8984 15.1797 6.14844 15.1797C4.0625 15.1797 2.14062 14.5703 0.5 13.5391C0.78125 13.5625 1.08594 13.5859 1.36719 13.5859C3.07812 13.5859 4.67187 13 5.9375 12.0156C4.32031 11.9922 2.96094 10.9141 2.51562 9.46094C2.75 9.50781 2.96094 9.53125 3.21875 9.53125C3.54687 9.53125 3.875 9.48438 4.17969 9.39062C2.49219 9.0625 1.22656 7.58594 1.22656 5.80469C1.22656 5.78125 1.22656 5.78125 1.22656 5.75781C1.71875 6.03906 2.28125 6.20312 2.89062 6.22656C1.90625 5.57031 1.25 4.44531 1.25 3.15625C1.25 2.47656 1.4375 1.84375 1.74219 1.30469C3.54687 3.53125 6.26562 4.98438 9.3125 5.14844C9.24219 4.89062 9.21875 4.58594 9.21875 4.30469C9.21875 2.26563 10.8594 0.625 12.8984 0.625C13.9531 0.625 14.9141 1.07031 15.5703 1.77344C16.4141 1.60938 17.1875 1.30469 17.9141 0.882812C17.6328 1.75 17.0469 2.45313 16.2969 2.92188C17.0469 2.82812 17.75 2.64062 18.4062 2.33594C17.9375 3.08594 17.3281 3.74219 16.6016 4.25781Z" fill="white"/>
</svg>
