<svg width="20" height="19" viewBox="0 0 20 19" fill="none" xmlns="http://www.w3.org/2000/svg">
<path d="M7.12588 9.5C7.12588 7.77417 8.52456 6.37475 10.2504 6.37475C11.9762 6.37475 13.3756 7.77417 13.3756 9.5C13.3756 11.2258 11.9762 12.6252 10.2504 12.6252C8.52456 12.6252 7.12588 11.2258 7.12588 9.5ZM5.43643 9.5C5.43643 12.1587 7.59163 14.3139 10.2504 14.3139C12.9091 14.3139 15.0643 12.1587 15.0643 9.5C15.0643 6.84125 12.9091 4.68605 10.2504 4.68605C7.59163 4.68605 5.43643 6.84125 5.43643 9.5ZM14.1299 4.49517C14.1298 4.71768 14.1957 4.93521 14.3193 5.12027C14.4428 5.30532 14.6184 5.44959 14.824 5.53482C15.0295 5.62005 15.2557 5.64242 15.4739 5.5991C15.6922 5.55577 15.8927 5.44871 16.0501 5.29144C16.2075 5.13417 16.3147 4.93375 16.3582 4.71554C16.4017 4.49733 16.3795 4.27112 16.2944 4.06552C16.2094 3.85992 16.0653 3.68416 15.8803 3.56047C15.6953 3.43678 15.4779 3.37071 15.2554 3.37063H15.2549C14.9567 3.37076 14.6707 3.48927 14.4597 3.70012C14.2488 3.91098 14.1302 4.19693 14.1299 4.49517ZM6.46288 17.131C5.54886 17.0894 5.05206 16.9371 4.72191 16.8085C4.28421 16.6381 3.97191 16.4352 3.64356 16.1073C3.31521 15.7794 3.11196 15.4674 2.94231 15.0297C2.81361 14.6997 2.66136 14.2027 2.61981 13.2887C2.57436 12.3005 2.56528 12.0036 2.56528 9.50008C2.56528 6.9965 2.57511 6.70047 2.61981 5.71145C2.66143 4.79742 2.81481 4.30145 2.94231 3.97047C3.11271 3.53277 3.31566 3.22047 3.64356 2.89213C3.97146 2.56378 4.28346 2.36053 4.72191 2.19088C5.05191 2.06218 5.54886 1.90992 6.46288 1.86837C7.45108 1.82292 7.74793 1.81385 10.2504 1.81385C12.7528 1.81385 13.05 1.82367 14.039 1.86837C14.953 1.91 15.449 2.06337 15.78 2.19088C16.2177 2.36053 16.53 2.56422 16.8583 2.89213C17.1867 3.22003 17.3892 3.53277 17.5596 3.97047C17.6883 4.30047 17.8405 4.79742 17.8821 5.71145C17.9275 6.70047 17.9366 6.9965 17.9366 9.50008C17.9366 12.0036 17.9275 12.2997 17.8821 13.2887C17.8405 14.2027 17.6875 14.6995 17.5596 15.0297C17.3892 15.4674 17.1862 15.7797 16.8583 16.1073C16.5304 16.4349 16.2177 16.6381 15.78 16.8085C15.45 16.9372 14.953 17.0895 14.039 17.131C13.0508 17.1765 12.754 17.1855 10.2504 17.1855C7.74681 17.1855 7.45078 17.1765 6.46288 17.131ZM6.38526 0.181775C5.38723 0.227225 4.70526 0.385475 4.10968 0.617225C3.49288 0.85655 2.97073 1.17762 2.44896 1.69857C1.92718 2.21952 1.60693 2.7425 1.36761 3.3593C1.13586 3.95525 0.977606 4.63685 0.932156 5.63488C0.885956 6.63448 0.875381 6.95405 0.875381 9.5C0.875381 12.0459 0.885956 12.3655 0.932156 13.3651C0.977606 14.3632 1.13586 15.0448 1.36761 15.6407C1.60693 16.2571 1.92726 16.7807 2.44896 17.3014C2.97066 17.8221 3.49288 18.1428 4.10968 18.3828C4.70638 18.6145 5.38723 18.7728 6.38526 18.8182C7.38538 18.8637 7.70443 18.875 10.2504 18.875C12.7963 18.875 13.1159 18.8644 14.1155 18.8182C15.1136 18.7728 15.7951 18.6145 16.3911 18.3828C17.0075 18.1428 17.53 17.8224 18.0518 17.3014C18.5736 16.7805 18.8932 16.2571 19.1332 15.6407C19.3649 15.0448 19.5239 14.3631 19.5686 13.3651C19.6141 12.3648 19.6246 12.0459 19.6246 9.5C19.6246 6.95405 19.6141 6.63448 19.5686 5.63488C19.5232 4.63678 19.3649 3.95487 19.1332 3.3593C18.8932 2.74287 18.5728 2.22035 18.0518 1.69857C17.5309 1.1768 17.0075 0.85655 16.3918 0.617225C15.7951 0.385475 15.1135 0.226475 14.1163 0.181775C13.1167 0.136325 12.7971 0.125 10.2511 0.125C7.70518 0.125 7.38538 0.135575 6.38526 0.181775Z" fill="white"/>
</svg>
