<svg width="19" height="21" viewBox="0 0 19 21" fill="none" xmlns="http://www.w3.org/2000/svg">
<path d="M16.8459 2.11534C16.3498 1.65917 14.341 0.198639 9.86338 0.178631C9.86338 0.178631 4.58545 -0.141486 2.01251 2.21938C0.579989 3.6519 0.0758049 5.74467 0.0237859 8.34562C-0.0282331 10.9426 -0.0962583 15.8123 4.59746 17.1328H4.60146L4.59746 19.1456C4.59746 19.1456 4.56945 19.9619 5.10564 20.1259C5.75388 20.326 6.13802 19.7058 6.75825 19.0375C7.09837 18.6694 7.56654 18.1332 7.92267 17.721C11.1318 17.9891 13.6007 17.3729 13.8809 17.2809C14.5291 17.0688 18.1984 16.6006 18.7946 11.7309C19.4109 6.72102 18.4945 3.54786 16.8459 2.11534ZM17.3901 11.3787C16.886 15.4442 13.9129 15.7003 13.3647 15.8764C13.1326 15.9524 10.9638 16.4926 8.23479 16.3125C8.23479 16.3125 6.20204 18.7654 5.56981 19.4017C5.46978 19.5017 5.35373 19.5417 5.27771 19.5217C5.16967 19.4937 5.13766 19.3657 5.14166 19.1776C5.14166 18.9055 5.15766 15.8284 5.15766 15.8284C5.15366 15.8284 5.15366 15.8284 5.15766 15.8284C1.18421 14.728 1.4163 10.5824 1.46031 8.41364C1.50433 6.24485 1.91248 4.4642 3.12492 3.26776C5.29771 1.29904 9.78335 1.59115 9.78335 1.59115C13.5687 1.60715 15.3814 2.74757 15.8016 3.12771C17.1981 4.32815 17.9103 7.1892 17.3901 11.3787Z" fill="white"/>
<path d="M11.7081 8.48968C11.5761 8.48968 11.464 8.38564 11.456 8.24959C11.412 7.38928 11.0078 6.96912 10.1835 6.92511C10.0435 6.9171 9.93545 6.79706 9.94346 6.65701C9.95146 6.51696 10.0715 6.40892 10.2116 6.41692C11.3 6.47694 11.9082 7.10117 11.9642 8.22158C11.9722 8.36163 11.8642 8.48168 11.7241 8.48568C11.7161 8.48968 11.7121 8.48968 11.7081 8.48968Z" fill="white"/>
<path d="M13.0046 8.92193H13.0006C12.8605 8.91792 12.7485 8.80188 12.7525 8.66183C12.7725 7.79751 12.5244 7.09726 11.9962 6.52105C11.472 5.94484 10.7477 5.63272 9.79139 5.5647C9.65134 5.55269 9.5473 5.43265 9.55931 5.2926C9.57131 5.15255 9.69136 5.04851 9.83141 5.06051C10.9118 5.14054 11.7641 5.51668 12.3723 6.18092C12.9846 6.84917 13.2807 7.68547 13.2607 8.67383C13.2567 8.81389 13.1406 8.92193 13.0046 8.92193Z" fill="white"/>
<path d="M14.333 9.44183C14.193 9.44183 14.0809 9.32979 14.0809 9.18974C14.0689 7.64117 13.6248 6.46074 12.7204 5.57642C11.8281 4.7041 10.6957 4.25994 9.36322 4.24793C9.22317 4.24793 9.11113 4.13189 9.11113 3.99184C9.11113 3.85179 9.22717 3.73975 9.36322 3.73975C10.8318 3.75175 12.0802 4.24393 13.0686 5.21228C14.0609 6.18064 14.5691 7.51713 14.5851 9.18174C14.5891 9.32579 14.4771 9.44183 14.333 9.44183C14.337 9.44183 14.337 9.44183 14.333 9.44183Z" fill="white"/>
<path d="M10.2435 11.6224C10.2435 11.6224 10.5997 11.6545 10.7917 11.4184L11.1639 10.9502C11.3439 10.7181 11.7801 10.5701 12.2043 10.8061C12.4403 10.9382 12.8685 11.2023 13.1326 11.3984C13.4167 11.6064 13.9929 12.0866 13.9969 12.0906C14.273 12.3227 14.337 12.6628 14.149 13.027C14.149 13.027 14.149 13.031 14.149 13.035C13.9569 13.3751 13.6968 13.6952 13.3727 13.9913C13.3687 13.9913 13.3687 13.9953 13.3647 13.9953C13.0966 14.2194 12.8325 14.3474 12.5764 14.3755C12.5444 14.3835 12.5084 14.3835 12.4604 14.3835C12.3483 14.3835 12.2363 14.3674 12.1242 14.3314L12.1162 14.3194C11.7161 14.2074 11.0518 13.9273 9.94744 13.3151C9.22717 12.9189 8.63096 12.5148 8.12277 12.1106C7.85467 11.8985 7.58257 11.6625 7.30247 11.3824C7.29447 11.3744 7.28246 11.3623 7.27446 11.3543C7.26646 11.3463 7.25445 11.3343 7.24645 11.3263C7.23845 11.3183 7.22644 11.3063 7.21844 11.2983C7.21044 11.2903 7.19843 11.2783 7.19043 11.2703C6.91433 10.9902 6.67424 10.7181 6.46216 10.45C6.05801 9.94583 5.65387 9.34561 5.25772 8.62535C4.6455 7.51694 4.3654 6.8527 4.25335 6.45655L4.24135 6.44855C4.20534 6.33651 4.18933 6.22447 4.18933 6.11243C4.18933 6.06441 4.18933 6.0284 4.19733 5.99639C4.22935 5.73629 4.35739 5.47619 4.57747 5.2081C4.57747 5.2041 4.58147 5.2041 4.58147 5.20009C4.87758 4.87197 5.1977 4.61588 5.53782 4.42381C5.53782 4.42381 5.54183 4.42381 5.54583 4.42381C5.90596 4.23574 6.24608 4.29976 6.48217 4.57587C6.48217 4.57587 6.96635 5.15608 7.17442 5.44018C7.37049 5.70828 7.63459 6.13243 7.76664 6.36852C8.00273 6.79268 7.85467 7.22884 7.62259 7.4089L7.15442 7.78104C6.91833 7.97311 6.95034 8.32924 6.95034 8.32924C6.95034 8.32924 7.64259 10.9622 10.2435 11.6224Z" fill="white"/>
</svg>
