<svg width="2000" height="616" viewBox="0 0 2000 616" fill="none" xmlns="http://www.w3.org/2000/svg">
<rect width="2000" height="487" transform="matrix(-1 0 0 1 2000 129)" fill="url(#paint0_linear_143_360)"/>
<mask id="mask0_143_360" style="mask-type:alpha" maskUnits="userSpaceOnUse" x="0" y="129" width="2000" height="487">
<rect width="2000" height="487" transform="matrix(-1 0 0 1 2000 129)" fill="url(#paint1_linear_143_360)"/>
</mask>
<g mask="url(#mask0_143_360)">
<path d="M2000 21.9995H1860L908 616H2000V21.9995Z" fill="url(#paint2_linear_143_360)"/>
<path d="M-14 615L126 615L1078 20.9996L-13.9999 20.9995L-14 615Z" fill="url(#paint3_linear_143_360)"/>
<path d="M602 1050V749L2607 -413L2608 -134L602 1050Z" fill="url(#paint4_linear_143_360)"/>
<path d="M1384 -413L1384 -112L-621 1050L-622 771L1384 -413Z" fill="url(#paint5_linear_143_360)"/>
<g style="mix-blend-mode:soft-light" opacity="0.6">
<g style="mix-blend-mode:soft-light" opacity="0.6">
<path d="M1310.87 -31.5168L1309.38 -31.188L1353.37 167.913L1354.86 167.584L1310.87 -31.5168Z" fill="white"/>
</g>
<g style="mix-blend-mode:soft-light" opacity="0.6">
<path d="M1091.9 378.137L1091.01 379.374L1309.7 537.268L1310.6 536.032L1091.9 378.137Z" fill="white"/>
</g>
<g style="mix-blend-mode:soft-light" opacity="0.6">
<path d="M1354.47 167.047L1353.76 168.396L1635.84 316.886L1636.56 315.536L1354.47 167.047Z" fill="white"/>
</g>
<g style="mix-blend-mode:soft-light" opacity="0.6">
<path d="M1412.48 374.477L1412.77 373.775L1538.95 74.7518L1537.27 74.041L1536.97 74.7427L1410.79 373.766L1412.48 374.477Z" fill="white"/>
</g>
<g style="mix-blend-mode:soft-light" opacity="0.6">
<path d="M932.571 325.973L824.226 525.783L825.568 526.509L933.913 326.699L932.571 325.973Z" fill="white"/>
</g>
<g style="mix-blend-mode:soft-light" opacity="0.6">
<path d="M1091.05 378.051L824.5 525.447L825.239 526.781L1091.79 379.386L1091.05 378.051Z" fill="white"/>
</g>
<g style="mix-blend-mode:soft-light" opacity="0.6">
<path d="M933.125 325.442L706.194 367.387L706.471 368.887L933.403 326.942L933.125 325.442Z" fill="white"/>
</g>
<g style="mix-blend-mode:soft-light" opacity="0.6">
<path d="M375.463 315.247L582.665 152.335L581.716 151.148L374.514 314.063L375.463 315.247Z" fill="white"/>
</g>
<g style="mix-blend-mode:soft-light" opacity="0.6">
<path d="M465.294 24.7836L464.181 25.8267L581.631 151.065L582.745 150.022L465.294 24.7836Z" fill="white"/>
</g>
<g style="mix-blend-mode:soft-light" opacity="0.6">
<path d="M696.067 -8.70088L581.573 150.103L582.811 150.994L697.305 -7.80925L696.067 -8.70088Z" fill="white"/>
</g>
<g style="mix-blend-mode:soft-light" opacity="0.6">
<path d="M697.49 -8.30766L695.964 -8.2688L705.566 368.16L707.092 368.122L697.49 -8.30766Z" fill="white"/>
</g>
<g style="mix-blend-mode:soft-light" opacity="0.6">
<path d="M582.246 149.773L582.103 151.292L874.902 178.948L875.045 177.43L582.246 149.773Z" fill="white"/>
</g>
<g style="mix-blend-mode:soft-light" opacity="0.6">
<path d="M706.879 367.75L705.659 368.666L824.285 526.541L825.506 525.626L706.879 367.75Z" fill="white"/>
</g>
<g style="mix-blend-mode:soft-light" opacity="0.6">
<path d="M1090.97 204.529L932.76 325.616L933.688 326.827L1091.9 205.74L1090.97 204.529Z" fill="white"/>
</g>
<g style="mix-blend-mode:soft-light" opacity="0.6">
<path d="M875.717 177.861L874.296 178.42L932.559 326.444L933.98 325.886L875.717 177.861Z" fill="white"/>
</g>
<g style="mix-blend-mode:soft-light" opacity="0.6">
<path d="M1353.34 168.331L1090.65 205.451L1090.86 206.961L1353.55 169.841L1353.34 168.331Z" fill="white"/>
</g>
<g style="mix-blend-mode:soft-light" opacity="0.6">
<path d="M1092.2 205.165H1090.67V378.66H1092.2V205.165Z" fill="white"/>
</g>
<g style="mix-blend-mode:soft-light" opacity="0.6">
<path d="M1636.04 315.383L1411.77 372.589L1412.15 374.067L1636.42 316.861L1636.04 315.383Z" fill="white"/>
</g>
<g style="mix-blend-mode:soft-light" opacity="0.6">
<path d="M1411.32 373.111L1309.51 536.236L1310.8 537.043L1412.61 373.919L1411.32 373.111Z" fill="white"/>
</g>
<g style="mix-blend-mode:soft-light" opacity="0.6">
<path d="M875.06 177.439L874.872 178.953L1091.32 205.892L1091.51 204.378L875.06 177.439Z" fill="white"/>
</g>
<g style="mix-blend-mode:soft-light" opacity="0.6">
<path d="M1123.64 64.4165L1090.67 204.969L1092.16 205.317L1125.12 64.7645L1123.64 64.4165Z" fill="white"/>
</g>
<g style="mix-blend-mode:soft-light" opacity="0.6">
<path d="M1091.65 379.831L1092.09 379.474L1355.37 168.067L1354.06 166.435L1091.22 377.488L932.827 325.015L932.168 327.001L932.891 327.242L1091.65 379.831Z" fill="white"/>
</g>
<g style="mix-blend-mode:soft-light" opacity="0.6">
<path d="M706.873 369.333L707.206 367.268L706.455 367.146L374.404 313.496L374.068 315.561L374.822 315.683L706.873 369.333Z" fill="white"/>
</g>
<g style="mix-blend-mode:soft-light" opacity="0.6">
<path d="M874.727 179.48L875.423 179.163L1125.53 65.252L1124.67 63.3484L873.86 177.577L874.727 179.48Z" fill="white"/>
</g>
<g style="mix-blend-mode:soft-light" opacity="0.6">
<path d="M706.101 369.965L707.068 368.873L876.278 178.336L874.712 176.945L706.473 366.392L582.72 149.37L580.904 150.407L706.101 369.965Z" fill="white"/>
</g>
<g style="mix-blend-mode:soft-light" opacity="0.6">
<path d="M696.942 -9.57572L695.427 -8.13037L874.731 179.488L876.245 178.042L696.942 -9.57572Z" fill="white"/>
</g>
<g style="mix-blend-mode:soft-light" opacity="0.6">
<path d="M1090.69 379.718L1091.45 379.706L1412.71 374.452L1412.67 372.36L1411.91 372.372L1090.66 377.625L1090.69 379.718Z" fill="white"/>
</g>
<g style="mix-blend-mode:soft-light" opacity="0.6">
<path d="M1411.13 374.437L1413.14 373.87L1412.94 373.138L1354.93 166.713L1352.91 167.278L1353.11 168.013L1411.13 374.437Z" fill="white"/>
</g>
<g style="mix-blend-mode:soft-light" opacity="0.6">
<path d="M1354.15 168.888L1354.6 168.663L1538.97 75.6886L1538.02 73.8215L1354.1 166.57L1124.14 63.3484L1123.28 65.2581L1354.15 168.888Z" fill="white"/>
</g>
<g style="mix-blend-mode:soft-light" opacity="0.6">
<path d="M1414.32 383.679C1419.96 382.349 1423.45 376.703 1422.12 371.069C1420.79 365.434 1415.14 361.945 1409.5 363.275C1403.86 364.605 1400.37 370.25 1401.7 375.885C1403.03 381.519 1408.68 385.009 1414.32 383.679Z" fill="white"/>
</g>
<g style="mix-blend-mode:soft-light" opacity="0.6">
<path d="M1354.12 178.211C1359.92 178.211 1364.61 173.518 1364.61 167.729C1364.61 161.94 1359.92 157.247 1354.12 157.247C1348.33 157.247 1343.63 161.94 1343.63 167.729C1343.63 173.518 1348.33 178.211 1354.12 178.211Z" fill="white"/>
</g>
<g style="mix-blend-mode:soft-light" opacity="0.6">
<path d="M377.244 322.764C382.805 321.201 386.046 315.428 384.482 309.871C382.918 304.313 377.141 301.075 371.579 302.638C366.017 304.201 362.776 309.973 364.34 315.531C365.905 321.089 371.682 324.327 377.244 322.764Z" fill="white"/>
</g>
<g style="mix-blend-mode:soft-light" opacity="0.6">
<path d="M1091.43 389.142C1097.23 389.142 1101.92 384.449 1101.92 378.659C1101.92 372.87 1097.23 368.177 1091.43 368.177C1085.64 368.177 1080.94 372.87 1080.94 378.659C1080.94 384.449 1085.64 389.142 1091.43 389.142Z" fill="white"/>
</g>
<g style="mix-blend-mode:soft-light" opacity="0.6">
<path d="M1645.9 320.24C1648.11 314.892 1645.57 308.76 1640.22 306.544C1634.87 304.329 1628.73 306.869 1626.51 312.217C1624.3 317.566 1626.84 323.698 1632.19 325.913C1637.54 328.128 1643.68 325.589 1645.9 320.24Z" fill="white"/>
</g>
<g style="mix-blend-mode:soft-light" opacity="0.6">
<path d="M713.704 375.591C717.8 371.498 717.8 364.861 713.704 360.767C709.607 356.673 702.965 356.673 698.868 360.767C694.771 364.861 694.771 371.498 698.868 375.591C702.965 379.685 709.607 379.685 713.704 375.591Z" fill="white"/>
</g>
<g style="mix-blend-mode:soft-light" opacity="0.6">
<path d="M582.189 161.032C587.983 161.032 592.679 156.339 592.679 150.55C592.679 144.761 587.983 140.068 582.189 140.068C576.395 140.068 571.699 144.761 571.699 150.55C571.699 156.339 576.395 161.032 582.189 161.032Z" fill="white"/>
</g>
<g style="mix-blend-mode:soft-light" opacity="0.6">
<path d="M878.453 190.374C884.188 189.448 888.086 184.051 887.159 178.319C886.233 172.588 880.831 168.693 875.096 169.619C869.36 170.545 865.462 175.942 866.389 181.674C867.316 187.405 872.717 191.3 878.453 190.374Z" fill="white"/>
</g>
<g style="mix-blend-mode:soft-light" opacity="0.6">
<path d="M940.64 333.663C944.737 329.569 944.737 322.932 940.64 318.839C936.543 314.745 929.901 314.745 925.804 318.839C921.708 322.932 921.708 329.569 925.804 333.663C929.901 337.756 936.543 337.756 940.64 333.663Z" fill="white"/>
</g>
<g style="mix-blend-mode:soft-light" opacity="0.6">
<path d="M834.585 530.08C836.802 524.731 834.26 518.599 828.908 516.384C823.555 514.168 817.419 516.708 815.201 522.057C812.984 527.405 815.526 533.537 820.879 535.753C826.231 537.968 832.368 535.428 834.585 530.08Z" fill="white"/>
</g>
<g style="mix-blend-mode:soft-light" opacity="0.6">
<path d="M1310.13 547.032C1315.92 547.032 1320.62 542.339 1320.62 536.55C1320.62 530.76 1315.92 526.067 1310.13 526.067C1304.33 526.067 1299.64 530.76 1299.64 536.55C1299.64 542.339 1304.33 547.032 1310.13 547.032Z" fill="white"/>
</g>
<g style="mix-blend-mode:soft-light" opacity="0.6">
<path d="M1098.85 212.579C1102.95 208.486 1102.95 201.849 1098.85 197.755C1094.76 193.661 1088.11 193.661 1084.02 197.755C1079.92 201.849 1079.92 208.486 1084.02 212.579C1088.11 216.673 1094.76 216.673 1098.85 212.579Z" fill="white"/>
</g>
</g>
</g>
<path d="M1530.94 51.6841H1329.88C1322.88 51.6841 1317.2 57.3565 1317.2 64.3537V179.165C1317.2 186.162 1322.88 191.835 1329.88 191.835H1530.94C1537.94 191.835 1543.62 186.162 1543.62 179.165V64.3537C1543.62 57.3565 1537.94 51.6841 1530.94 51.6841Z" fill="url(#paint6_linear_143_360)"/>
<path d="M1355.47 87.1061H1372.1V80.4493C1372.11 79.9206 1372 79.3968 1371.8 78.9082C1371.6 78.4197 1371.3 77.9758 1370.93 77.6022C1370.55 77.2286 1370.11 76.9326 1369.62 76.7312C1369.13 76.5298 1368.6 76.4269 1368.07 76.4285H1344.8V92.4967C1344.8 93.4577 1344.29 94.2386 1343.33 94.2386C1342.37 94.2386 1341.99 93.4577 1341.99 92.4967V76.4285H1337.96C1336.9 76.4285 1335.87 76.8515 1335.12 77.6044C1334.37 78.3573 1333.94 79.3784 1333.94 80.4432V99.91H1355.77C1356.1 99.9024 1356.42 100.017 1356.67 100.231C1356.92 100.445 1357.09 100.745 1357.13 101.072C1357.15 101.253 1357.13 101.435 1357.07 101.607C1357.02 101.78 1356.93 101.938 1356.8 102.073C1356.68 102.207 1356.53 102.315 1356.37 102.389C1356.2 102.462 1356.02 102.5 1355.84 102.5H1333.94V110.53C1333.94 111.595 1334.36 112.616 1335.12 113.37C1335.87 114.123 1336.89 114.547 1337.96 114.547H1368.07C1369.14 114.547 1370.16 114.123 1370.91 113.37C1371.67 112.616 1372.09 111.595 1372.09 110.53V89.7419H1355.39C1355.2 89.742 1355.02 89.7033 1354.85 89.6283C1354.68 89.5533 1354.53 89.4437 1354.4 89.3065C1354.28 89.1694 1354.19 89.0077 1354.13 88.8321C1354.07 88.6564 1354.05 88.4706 1354.07 88.2867C1354.12 87.9534 1354.29 87.6492 1354.54 87.4316C1354.8 87.214 1355.13 87.0982 1355.47 87.1061Z" fill="url(#paint7_linear_143_360)"/>
<path d="M1526.61 152.803H1480.49V176.059H1526.61V152.803Z" fill="#EDECEB"/>
<path d="M1376.99 128.721H1333.94V139.572H1376.99V128.721Z" fill="#EDECEB"/>
<path d="M1426.89 128.721H1383.04V139.572H1426.89V128.721Z" fill="#EDECEB"/>
<path d="M1526.36 128.721H1481.57V139.572H1526.36V128.721Z" fill="#EDECEB"/>
<path d="M1475.18 128.721H1433.75V139.572H1475.18V128.721Z" fill="#EDECEB"/>
<path d="M1466.94 152.803H1334.2V166.815H1466.94V152.803Z" fill="#EDCF85"/>
<path d="M1526.61 64.863H1469.5V81.1997H1526.61V64.863Z" fill="#EDECEB"/>
<path style="mix-blend-mode:multiply" opacity="0.4" d="M381.92 466.613L538.216 500.361L844.041 372.087L662.216 337.952L381.92 466.613Z" fill="url(#paint8_linear_143_360)"/>
<path d="M711.193 168.383H710.973L540.973 157.129C540.499 157.098 540.039 156.964 539.622 156.738C539.205 156.511 538.843 156.197 538.56 155.816C538.277 155.436 538.08 154.999 537.983 154.535C537.885 154.071 537.89 153.592 537.996 153.13C545.247 121.552 554.437 101.267 566.084 91.0931C566.73 90.5277 567.572 90.2394 568.429 90.2908L739.129 100.224C739.73 100.259 740.311 100.459 740.806 100.803C741.301 101.146 741.692 101.619 741.935 102.17C742.179 102.721 742.265 103.329 742.185 103.925C742.105 104.522 741.862 105.086 741.483 105.554C727.197 123.165 718.093 143.383 714.423 165.653C714.295 166.416 713.901 167.11 713.309 167.61C712.718 168.11 711.968 168.384 711.193 168.383ZM545.268 150.845L708.473 161.647C712.163 141.631 720.396 122.726 732.54 106.386L569.43 96.9017C559.868 105.941 551.747 124.065 545.268 150.845Z" fill="#E6E6E6"/>
<path d="M732.153 99.3975C731.594 97.7653 730.537 96.0996 728.928 95.9349L574.544 86.3464C568.035 87.5179 568.032 100.545 573.665 100.905L728.049 110.493C729.899 110.115 731.102 108.724 731.847 106.542C728.928 106.432 728.165 99.4585 732.153 99.3975Z" fill="#33539D"/>
<path d="M555.313 462.52C555.313 456.072 550.082 450.844 543.629 450.844C537.176 450.844 531.945 456.072 531.945 462.52V483.365C531.945 489.813 537.176 495.04 543.629 495.04C550.082 495.04 555.313 489.813 555.313 483.365V462.52Z" fill="#5B5B5B"/>
<path d="M531.945 462.519V489.976L533.795 488.676V460.286L531.945 462.519Z" fill="#B2B2B2"/>
<path d="M541.342 464.213C541.342 464.213 552.745 461.528 558.042 472.001C563.34 482.474 547.61 500.312 543.721 501.016C539.831 501.721 532.467 500.864 529.032 494.027C525.598 487.191 532.568 467.95 541.342 464.213Z" fill="#4D4D4D"/>
<path d="M550.677 485.195C554.094 476.022 551.916 466.746 545.812 464.475C539.707 462.204 531.988 467.799 528.571 476.971C525.154 486.143 527.332 495.42 533.436 497.691C539.54 499.962 547.259 494.367 550.677 485.195Z" fill="#4D4D4D"/>
<path d="M557.992 487.916C561.41 478.744 559.232 469.467 553.127 467.196C547.023 464.926 539.304 470.52 535.887 479.693C532.469 488.865 534.647 498.142 540.752 500.413C546.856 502.683 554.575 497.089 557.992 487.916Z" fill="#4D4D4D"/>
<path d="M556.17 487.238C559.024 479.579 557.205 471.832 552.107 469.935C547.009 468.039 540.563 472.711 537.709 480.371C534.855 488.031 536.674 495.777 541.772 497.674C546.87 499.57 553.316 494.898 556.17 487.238Z" fill="#5B5B5B"/>
<path d="M527.323 461.83H527.286V461.446C527.286 461.575 527.298 461.703 527.323 461.83Z" fill="#5B5B5B"/>
<path d="M543.629 450.841C537.202 450.841 531.945 456.012 531.945 462.33L533.795 465.93C533.795 459.478 543.464 459.493 543.464 465.93L543.629 488.564C543.629 494.952 554.757 490.452 555.313 483.551V462.346C555.313 456.012 550.056 450.841 543.629 450.841Z" fill="#B2B2B2"/>
<path d="M392.17 424.822H392.167C386.221 424.822 381.401 429.638 381.401 435.578V454.789C381.401 460.73 386.221 465.546 392.167 465.546H392.17C398.115 465.546 402.935 460.73 402.935 454.789V435.578C402.935 429.638 398.115 424.822 392.17 424.822Z" fill="#5C5C5C"/>
<path d="M381.401 435.581V460.881L383.105 459.682V433.522L381.401 435.581Z" fill="#B2B2B2"/>
<path d="M390.063 437.143C390.063 437.143 400.569 434.666 405.45 444.319C410.332 453.971 395.839 470.405 392.255 471.052C388.671 471.699 381.875 470.912 378.718 464.615C375.561 458.318 381.975 440.585 390.063 437.143Z" fill="#4D4D4D"/>
<path d="M398.674 456.478C401.823 448.025 399.816 439.477 394.19 437.384C388.565 435.291 381.452 440.447 378.302 448.899C375.153 457.352 377.161 465.9 382.786 467.993C388.412 470.086 395.525 464.93 398.674 456.478Z" fill="#4D4D4D"/>
<path d="M405.416 458.988C408.565 450.535 406.557 441.987 400.932 439.894C395.306 437.801 388.193 442.957 385.044 451.409C381.895 459.861 383.902 468.41 389.528 470.503C395.153 472.595 402.266 467.44 405.416 458.988Z" fill="#4D4D4D"/>
<path d="M403.699 458.544C406.33 451.487 404.654 444.348 399.956 442.599C395.259 440.851 389.318 445.155 386.687 452.212C384.056 459.27 385.731 466.409 390.429 468.157C395.127 469.906 401.068 465.602 403.699 458.544Z" fill="#5B5B5B"/>
<path d="M377.133 434.947H377.112V434.584C377.106 434.705 377.114 434.827 377.133 434.947Z" fill="#5B5B5B"/>
<path d="M392.17 424.822C386.247 424.822 381.401 429.584 381.401 435.408L383.105 438.724C383.105 432.781 392.017 432.793 392.017 438.724L392.17 459.578C392.17 465.466 402.425 461.32 402.935 454.96V435.408C402.935 429.584 398.089 424.822 392.17 424.822Z" fill="#B2B2B2"/>
<path d="M535.505 363.316H535.502C530.197 363.316 525.897 367.613 525.897 372.913V390.055C525.897 395.356 530.197 399.653 535.502 399.653H535.505C540.809 399.653 545.11 395.356 545.11 390.055V372.913C545.11 367.613 540.809 363.316 535.505 363.316Z" fill="#5C5C5C"/>
<path d="M525.897 372.913V395.489L527.417 394.421V371.077L525.897 372.913Z" fill="#B2B2B2"/>
<path d="M533.624 374.307C533.624 374.307 542.997 372.099 547.363 380.714C551.729 389.329 538.787 403.994 535.587 404.571C532.388 405.147 526.333 404.446 523.509 398.826C520.685 393.207 526.407 377.38 533.624 374.307Z" fill="#4D4D4D"/>
<path d="M541.295 391.551C544.105 384.01 542.314 376.383 537.295 374.516C532.276 372.649 525.93 377.249 523.12 384.79C520.311 392.331 522.101 399.958 527.12 401.825C532.139 403.692 538.485 399.092 541.295 391.551Z" fill="#4D4D4D"/>
<path d="M547.31 393.787C550.12 386.246 548.329 378.619 543.31 376.752C538.292 374.885 531.945 379.485 529.136 387.026C526.326 394.567 528.117 402.194 533.135 404.061C538.154 405.928 544.5 401.328 547.31 393.787Z" fill="#4D4D4D"/>
<path d="M549 393.448C551.354 387.131 549.855 380.741 545.651 379.177C541.448 377.614 536.132 381.467 533.778 387.785C531.424 394.103 532.923 400.492 537.126 402.056C541.33 403.62 546.646 399.766 549 393.448Z" fill="#5B5B5B"/>
<path d="M522.087 372.35H522.056V372.044C522.056 372.147 522.066 372.249 522.087 372.35Z" fill="#5B5B5B"/>
<path d="M535.502 363.313C530.22 363.313 525.897 367.562 525.897 372.77L527.423 375.732C527.423 370.427 535.361 370.439 535.361 375.732L535.496 394.342C535.496 399.595 544.655 395.895 545.104 390.22V372.773C545.11 367.562 540.787 363.313 535.502 363.313Z" fill="#B2B2B2"/>
<path d="M694.56 384.024H694.557C689.252 384.024 684.952 388.321 684.952 393.622V410.764C684.952 416.064 689.252 420.361 694.557 420.361H694.56C699.865 420.361 704.165 416.064 704.165 410.764V393.622C704.165 388.321 699.865 384.024 694.56 384.024Z" fill="#5C5C5C"/>
<path d="M684.952 393.622V416.2L686.473 415.129V391.785L684.952 393.622Z" fill="#B2B2B2"/>
<path d="M692.679 395.016C692.679 395.016 702.052 392.807 706.418 401.422C710.784 410.038 697.842 424.699 694.643 425.276C691.443 425.853 685.389 425.151 682.565 419.531C679.741 413.912 685.471 398.088 692.679 395.016Z" fill="#4D4D4D"/>
<path d="M700.338 412.251C703.148 404.709 701.357 397.082 696.338 395.215C691.32 393.348 684.973 397.948 682.164 405.49C679.354 413.031 681.145 420.658 686.163 422.525C691.182 424.392 697.528 419.792 700.338 412.251Z" fill="#4D4D4D"/>
<path d="M706.353 414.493C709.163 406.951 707.372 399.324 702.354 397.457C697.335 395.59 690.989 400.19 688.179 407.732C685.369 415.273 687.16 422.9 692.179 424.767C697.197 426.634 703.544 422.034 706.353 414.493Z" fill="#4D4D4D"/>
<path d="M704.854 413.932C707.201 407.633 705.706 401.263 701.515 399.704C697.325 398.145 692.025 401.988 689.678 408.286C687.331 414.585 688.826 420.955 693.017 422.514C697.208 424.073 702.507 420.23 704.854 413.932Z" fill="#5B5B5B"/>
<path d="M681.142 393.058H681.111V392.752C681.112 392.855 681.122 392.957 681.142 393.058Z" fill="#5B5B5B"/>
<path d="M694.557 384.021C689.275 384.021 684.952 388.274 684.952 393.478L686.479 396.441C686.479 391.136 694.417 391.148 694.417 396.441L692.643 414.467C692.643 419.721 703.704 416.603 704.159 410.926V393.478C704.165 388.274 699.842 384.021 694.557 384.021Z" fill="#B2B2B2"/>
<path d="M516.231 465.125C513.624 465.124 511.024 464.868 508.467 464.362L386.039 440.173C384.267 439.822 382.656 438.907 381.448 437.564C380.24 436.221 379.501 434.523 379.34 432.725C379.179 430.926 379.606 429.124 380.557 427.589C381.508 426.054 382.931 424.868 384.613 424.209L525.286 369.21C530.217 367.288 534.311 363.691 536.851 359.051C539.39 354.411 540.212 349.025 539.172 343.84L532.046 308.165C531.937 307.617 531.96 307.051 532.113 306.513C532.266 305.976 532.544 305.483 532.926 305.074C533.307 304.666 533.78 304.353 534.306 304.164C534.832 303.974 535.396 303.912 535.951 303.982L696.377 324.474C697.09 324.565 697.757 324.872 698.291 325.353C698.825 325.834 699.199 326.466 699.363 327.165L706.537 357.791C708.035 364.455 707.185 371.431 704.13 377.54C701.075 383.65 696.002 388.518 689.77 391.322L532.458 461.65C527.355 463.94 521.825 465.124 516.231 465.125ZM539.91 311.594L546.075 342.452C547.442 349.26 546.363 356.332 543.029 362.424C539.695 368.516 534.319 373.24 527.845 375.763L387.187 430.774C386.925 430.876 386.702 431.061 386.554 431.3C386.405 431.539 386.339 431.82 386.364 432.101C386.389 432.381 386.505 432.646 386.693 432.855C386.882 433.064 387.133 433.206 387.41 433.26L509.838 457.449C516.487 458.775 523.385 457.994 529.57 455.216L686.885 384.891C691.629 382.757 695.491 379.053 697.818 374.403C700.145 369.754 700.796 364.444 699.659 359.371L693.04 331.164L539.91 311.594Z" fill="#CCCCCC"/>
<path d="M703.625 329.334C703.564 329.338 703.503 329.338 703.442 329.334L528.416 307.744C528.036 307.697 527.689 307.506 527.446 307.21C527.204 306.914 527.085 306.536 527.115 306.154L538.509 152.535C538.539 152.144 538.721 151.78 539.017 151.523C539.313 151.265 539.699 151.135 540.09 151.159L715.116 162.413C715.312 162.425 715.504 162.476 715.68 162.562C715.856 162.649 716.013 162.769 716.142 162.917C716.271 163.064 716.37 163.236 716.432 163.422C716.495 163.608 716.52 163.804 716.506 164L705.109 327.961C705.082 328.337 704.915 328.688 704.639 328.945C704.364 329.202 704.001 329.345 703.625 329.346V329.334ZM530.189 304.949L702.263 326.17L713.446 165.269L541.367 154.222L530.189 304.949Z" fill="#CCCCCC"/>
<path d="M536.413 201.18L536.267 202.962L711.306 217.311L711.453 215.53L536.413 201.18Z" fill="#CCCCCC"/>
<path d="M532.416 255.399L532.247 257.178L707.378 273.844L707.547 272.064L532.416 255.399Z" fill="#CCCCCC"/>
<path d="M545.946 308.812H545.907C545.78 308.801 545.664 308.74 545.582 308.644C545.5 308.547 545.46 308.422 545.47 308.296L558.256 153.548C558.267 153.422 558.327 153.305 558.424 153.223C558.521 153.142 558.646 153.102 558.772 153.112C558.898 153.123 559.013 153.183 559.095 153.279C559.176 153.375 559.216 153.499 559.206 153.624L546.419 308.375C546.41 308.494 546.355 308.605 546.268 308.686C546.18 308.766 546.065 308.811 545.946 308.812Z" fill="#CCCCCC"/>
<path d="M568.515 311.603H568.475C568.412 311.598 568.352 311.581 568.296 311.552C568.24 311.524 568.191 311.484 568.15 311.437C568.11 311.389 568.079 311.334 568.06 311.275C568.041 311.215 568.033 311.152 568.038 311.09L580.605 155.033C580.605 154.967 580.618 154.902 580.645 154.841C580.671 154.781 580.71 154.726 580.759 154.681C580.807 154.637 580.865 154.602 580.927 154.581C580.99 154.559 581.056 154.551 581.122 154.556C581.188 154.561 581.252 154.58 581.311 154.611C581.369 154.643 581.42 154.686 581.461 154.738C581.502 154.79 581.531 154.85 581.548 154.914C581.565 154.978 581.568 155.044 581.557 155.11L568.988 311.166C568.978 311.285 568.924 311.396 568.836 311.477C568.748 311.557 568.634 311.602 568.515 311.603Z" fill="#CCCCCC"/>
<path d="M591.458 314.443H591.418C591.356 314.439 591.296 314.422 591.24 314.394C591.184 314.365 591.135 314.327 591.094 314.279C591.054 314.232 591.023 314.177 591.004 314.118C590.984 314.058 590.977 313.996 590.982 313.934L603.322 156.544C603.327 156.481 603.344 156.42 603.372 156.364C603.401 156.309 603.44 156.259 603.488 156.218C603.535 156.178 603.591 156.147 603.65 156.128C603.71 156.109 603.773 156.102 603.835 156.107C603.961 156.118 604.077 156.178 604.159 156.274C604.241 156.37 604.281 156.494 604.272 156.62L591.931 314.007C591.921 314.126 591.867 314.236 591.78 314.317C591.692 314.398 591.577 314.443 591.458 314.443Z" fill="#CCCCCC"/>
<path d="M614.787 317.329H614.75C614.688 317.324 614.627 317.307 614.571 317.279C614.516 317.25 614.466 317.211 614.426 317.163C614.385 317.116 614.354 317.061 614.335 317.001C614.316 316.942 614.308 316.879 614.313 316.817L626.416 158.078C626.429 157.955 626.489 157.842 626.584 157.763C626.679 157.684 626.801 157.644 626.925 157.653C627.048 157.663 627.163 157.719 627.245 157.812C627.328 157.904 627.371 158.025 627.365 158.148L615.251 316.89C615.242 317.008 615.189 317.118 615.103 317.199C615.018 317.28 614.905 317.327 614.787 317.329Z" fill="#CCCCCC"/>
<path d="M638.518 320.264H638.481C638.419 320.26 638.358 320.243 638.302 320.215C638.246 320.187 638.196 320.149 638.155 320.101C638.114 320.054 638.083 319.999 638.064 319.939C638.044 319.88 638.037 319.817 638.042 319.755L649.897 159.637C649.906 159.511 649.965 159.394 650.061 159.311C650.157 159.228 650.282 159.187 650.408 159.196C650.535 159.206 650.652 159.265 650.735 159.361C650.817 159.456 650.859 159.581 650.849 159.707L638.991 319.825C638.983 319.944 638.929 320.056 638.841 320.138C638.754 320.219 638.638 320.264 638.518 320.264Z" fill="#CCCCCC"/>
<path d="M662.656 323.251H662.619C662.557 323.246 662.496 323.23 662.439 323.202C662.383 323.174 662.334 323.135 662.293 323.088C662.252 323.04 662.221 322.985 662.201 322.926C662.182 322.866 662.174 322.804 662.179 322.741L673.781 161.223C673.784 161.16 673.799 161.097 673.827 161.04C673.854 160.982 673.893 160.931 673.94 160.888C673.988 160.846 674.044 160.813 674.104 160.793C674.164 160.773 674.228 160.764 674.292 160.769C674.356 160.774 674.418 160.791 674.474 160.82C674.531 160.849 674.581 160.89 674.622 160.939C674.663 160.987 674.694 161.044 674.712 161.105C674.731 161.166 674.737 161.23 674.73 161.294L663.129 322.811C663.12 322.931 663.067 323.043 662.979 323.124C662.891 323.206 662.776 323.251 662.656 323.251Z" fill="#CCCCCC"/>
<path d="M687.208 326.283H687.178C687.115 326.279 687.054 326.262 686.998 326.234C686.942 326.206 686.892 326.168 686.85 326.12C686.809 326.073 686.778 326.018 686.758 325.959C686.738 325.899 686.731 325.836 686.735 325.774L698.065 162.834C698.066 162.77 698.081 162.707 698.108 162.648C698.134 162.59 698.173 162.538 698.22 162.494C698.268 162.451 698.323 162.418 698.384 162.397C698.445 162.375 698.509 162.367 698.573 162.371C698.637 162.375 698.7 162.393 698.757 162.422C698.814 162.451 698.865 162.491 698.906 162.541C698.948 162.59 698.979 162.647 698.997 162.708C699.016 162.77 699.022 162.835 699.014 162.898L687.685 325.841C687.676 325.961 687.622 326.074 687.534 326.156C687.445 326.238 687.329 326.284 687.208 326.283Z" fill="#CCCCCC"/>
<path d="M662.839 243.856L580.253 236.699C578.801 236.574 577.456 235.881 576.512 234.771C575.568 233.661 575.101 232.223 575.213 230.771L578.983 181.12L672.374 187.426L668.841 238.727C668.79 239.46 668.594 240.176 668.264 240.832C667.933 241.488 667.475 242.072 666.916 242.549C666.358 243.027 665.709 243.388 665.009 243.612C664.309 243.837 663.571 243.919 662.839 243.856Z" fill="#CCCCCC"/>
<path d="M382.846 359.005C382.728 359.005 382.615 358.962 382.528 358.883C382.44 358.805 382.385 358.698 382.372 358.581L366.988 218.4C366.973 218.272 367.009 218.144 367.089 218.043C367.169 217.942 367.286 217.877 367.414 217.862C367.542 217.847 367.67 217.883 367.772 217.963C367.873 218.043 367.938 218.159 367.953 218.287L383.334 358.468C383.341 358.53 383.336 358.593 383.319 358.653C383.301 358.714 383.272 358.77 383.233 358.818C383.194 358.867 383.145 358.908 383.09 358.938C383.035 358.968 382.975 358.986 382.913 358.993L382.846 359.005Z" fill="#CCCCCC"/>
<path d="M396.117 354.246C395.999 354.246 395.884 354.201 395.797 354.121C395.709 354.041 395.655 353.931 395.644 353.813L382.607 212.442C382.602 212.38 382.608 212.317 382.626 212.257C382.645 212.198 382.675 212.142 382.715 212.094C382.755 212.046 382.804 212.006 382.86 211.977C382.915 211.947 382.976 211.929 383.038 211.924C383.164 211.913 383.288 211.953 383.385 212.033C383.482 212.114 383.544 212.229 383.557 212.354L396.594 353.74C396.605 353.866 396.565 353.991 396.484 354.089C396.403 354.186 396.286 354.247 396.16 354.258L396.117 354.246Z" fill="#CCCCCC"/>
<path d="M409.444 349.469C409.323 349.468 409.207 349.423 409.119 349.341C409.031 349.259 408.977 349.146 408.968 349.026L398.306 206.457C398.3 206.393 398.306 206.329 398.324 206.268C398.343 206.207 398.374 206.151 398.414 206.102C398.455 206.053 398.506 206.013 398.562 205.983C398.619 205.954 398.681 205.937 398.745 205.932C398.808 205.928 398.872 205.936 398.933 205.956C398.993 205.976 399.049 206.009 399.097 206.051C399.144 206.094 399.183 206.145 399.21 206.203C399.238 206.26 399.253 206.323 399.256 206.386L409.917 348.956C409.922 349.019 409.915 349.082 409.896 349.142C409.876 349.202 409.845 349.258 409.804 349.306C409.763 349.353 409.712 349.392 409.656 349.42C409.599 349.448 409.537 349.465 409.474 349.469H409.444Z" fill="#CCCCCC"/>
<path d="M422.822 344.667C422.7 344.666 422.583 344.619 422.495 344.535C422.406 344.451 422.353 344.337 422.346 344.215L414.075 200.441C414.072 200.378 414.08 200.315 414.101 200.256C414.121 200.197 414.153 200.143 414.195 200.096C414.237 200.049 414.287 200.011 414.344 199.984C414.4 199.956 414.462 199.941 414.524 199.937C414.65 199.932 414.773 199.976 414.867 200.06C414.961 200.143 415.019 200.26 415.028 200.386L423.299 344.16C423.302 344.223 423.294 344.286 423.273 344.345C423.253 344.404 423.221 344.458 423.179 344.505C423.137 344.552 423.087 344.59 423.03 344.617C422.974 344.644 422.912 344.66 422.85 344.664L422.822 344.667Z" fill="#CCCCCC"/>
<path d="M436.256 339.847C436.133 339.846 436.015 339.798 435.926 339.713C435.838 339.628 435.785 339.512 435.78 339.389L429.93 194.394C429.927 194.331 429.937 194.269 429.959 194.21C429.981 194.152 430.014 194.098 430.056 194.052C430.099 194.006 430.15 193.969 430.207 193.943C430.264 193.917 430.325 193.902 430.388 193.9C430.451 193.897 430.513 193.906 430.572 193.927C430.632 193.949 430.686 193.982 430.732 194.024C430.778 194.067 430.815 194.118 430.841 194.176C430.867 194.233 430.881 194.295 430.882 194.357L436.741 339.352C436.744 339.415 436.735 339.477 436.713 339.536C436.692 339.594 436.659 339.648 436.617 339.694C436.575 339.74 436.524 339.777 436.467 339.803C436.41 339.83 436.349 339.844 436.286 339.847H436.256Z" fill="#CCCCCC"/>
<path d="M449.744 335.008C449.62 335.007 449.5 334.958 449.412 334.871C449.323 334.784 449.271 334.666 449.268 334.541L445.846 188.32C445.843 188.194 445.89 188.072 445.977 187.98C446.065 187.889 446.185 187.836 446.311 187.833C446.437 187.831 446.56 187.878 446.651 187.965C446.742 188.052 446.795 188.172 446.798 188.299L450.224 334.52C450.226 334.646 450.178 334.769 450.091 334.86C450.003 334.952 449.883 335.005 449.756 335.008H449.744Z" fill="#CCCCCC"/>
<path d="M463.291 330.151C463.164 330.151 463.043 330.101 462.954 330.012C462.865 329.923 462.814 329.802 462.814 329.675L461.844 182.218C461.843 182.156 461.855 182.094 461.879 182.035C461.903 181.977 461.938 181.924 461.982 181.88C462.026 181.835 462.079 181.8 462.137 181.776C462.195 181.752 462.257 181.74 462.32 181.74C462.445 181.74 462.566 181.79 462.655 181.879C462.744 181.967 462.794 182.087 462.796 182.212L463.764 329.669C463.765 329.796 463.715 329.917 463.627 330.008C463.538 330.098 463.417 330.15 463.291 330.151Z" fill="#CCCCCC"/>
<path d="M476.889 325.273C476.826 325.273 476.765 325.259 476.707 325.235C476.65 325.21 476.598 325.174 476.554 325.13C476.51 325.085 476.476 325.032 476.453 324.974C476.43 324.916 476.418 324.854 476.419 324.791L477.927 176.087C477.929 175.961 477.98 175.84 478.07 175.752C478.159 175.663 478.28 175.614 478.406 175.614C478.533 175.615 478.654 175.667 478.742 175.757C478.831 175.848 478.88 175.969 478.88 176.096L477.353 324.8C477.352 324.924 477.302 325.042 477.216 325.13C477.13 325.218 477.012 325.269 476.889 325.273Z" fill="#CCCCCC"/>
<path d="M490.545 320.374C490.481 320.373 490.418 320.359 490.36 320.334C490.301 320.308 490.249 320.271 490.205 320.225C490.161 320.178 490.127 320.124 490.105 320.064C490.082 320.004 490.072 319.94 490.075 319.876L494.087 169.915C494.09 169.789 494.143 169.669 494.235 169.582C494.327 169.495 494.449 169.448 494.575 169.451C494.702 169.454 494.822 169.508 494.909 169.599C494.996 169.691 495.043 169.813 495.039 169.939L491.022 319.91C491.018 320.034 490.966 320.151 490.877 320.238C490.788 320.324 490.669 320.373 490.545 320.374Z" fill="#CCCCCC"/>
<path d="M504.257 315.456H504.235C504.109 315.45 503.99 315.394 503.904 315.301C503.819 315.208 503.773 315.085 503.777 314.959L510.311 163.731C510.314 163.669 510.329 163.607 510.355 163.551C510.382 163.494 510.419 163.443 510.466 163.401C510.512 163.359 510.566 163.326 510.625 163.305C510.684 163.283 510.746 163.274 510.809 163.277C510.871 163.279 510.932 163.294 510.989 163.321C511.046 163.347 511.097 163.385 511.139 163.431C511.181 163.477 511.214 163.531 511.235 163.59C511.257 163.649 511.266 163.711 511.263 163.774L504.73 314.995C504.727 315.119 504.675 315.236 504.587 315.322C504.499 315.408 504.38 315.456 504.257 315.456Z" fill="#CCCCCC"/>
<path d="M518.023 310.517H517.995C517.933 310.513 517.872 310.498 517.815 310.47C517.759 310.443 517.708 310.405 517.666 310.358C517.625 310.312 517.593 310.257 517.572 310.198C517.552 310.139 517.543 310.076 517.547 310.014L526.626 157.511C526.627 157.446 526.64 157.382 526.666 157.323C526.691 157.263 526.729 157.21 526.776 157.165C526.823 157.121 526.879 157.087 526.94 157.065C527.001 157.042 527.066 157.033 527.13 157.037C527.195 157.04 527.258 157.057 527.316 157.086C527.374 157.115 527.425 157.156 527.467 157.205C527.509 157.255 527.54 157.312 527.559 157.374C527.577 157.436 527.583 157.501 527.576 157.566L518.499 310.068C518.491 310.19 518.438 310.303 518.35 310.387C518.261 310.47 518.144 310.516 518.023 310.517Z" fill="#CCCCCC"/>
<path d="M369.507 364.801C369.142 364.802 368.791 364.669 368.518 364.428C368.245 364.187 368.07 363.854 368.026 363.493L351.011 224.233C350.97 223.903 351.041 223.569 351.213 223.284C351.385 222.999 351.647 222.78 351.958 222.662L539.465 151.235C539.699 151.146 539.952 151.118 540.2 151.153C540.448 151.187 540.684 151.284 540.885 151.434C541.086 151.583 541.246 151.781 541.351 152.008C541.455 152.236 541.5 152.486 541.483 152.736L530.086 306.359C530.063 306.645 529.959 306.92 529.784 307.149C529.61 307.378 529.373 307.551 529.103 307.649L370.01 364.722C369.848 364.777 369.678 364.803 369.507 364.801ZM354.11 225.029L370.758 361.284L527.185 305.172L538.338 154.85L354.11 225.029Z" fill="#CCCCCC"/>
<path d="M536.049 200.823L357.568 267.326L358.193 269.001L536.674 202.498L536.049 200.823Z" fill="#CCCCCC"/>
<path d="M532.022 255.391L363.894 317.47L364.514 319.147L532.643 257.068L532.022 255.391Z" fill="#CCCCCC"/>
<path d="M540.429 386.803H540.347L383.261 358.825C383.136 358.803 383.025 358.732 382.953 358.628C382.88 358.524 382.852 358.396 382.875 358.271C382.897 358.147 382.968 358.036 383.072 357.964C383.176 357.892 383.304 357.863 383.429 357.886L540.512 385.864C540.631 385.883 540.738 385.946 540.812 386.041C540.886 386.136 540.921 386.255 540.911 386.375C540.9 386.495 540.845 386.606 540.755 386.687C540.666 386.767 540.55 386.811 540.429 386.809V386.803Z" fill="#CCCCCC"/>
<path d="M555.835 381.282H555.756L397.134 353.862C397.072 353.851 397.013 353.828 396.96 353.795C396.907 353.761 396.861 353.718 396.825 353.667C396.789 353.616 396.763 353.558 396.749 353.497C396.736 353.436 396.734 353.373 396.745 353.311C396.755 353.249 396.778 353.19 396.811 353.137C396.845 353.084 396.888 353.039 396.94 353.002C396.991 352.966 397.049 352.941 397.11 352.927C397.171 352.913 397.234 352.911 397.296 352.922L555.918 380.336C556.036 380.355 556.143 380.418 556.217 380.513C556.291 380.608 556.327 380.727 556.316 380.847C556.306 380.967 556.25 381.078 556.161 381.159C556.072 381.239 555.955 381.283 555.835 381.282Z" fill="#CCCCCC"/>
<path d="M571.238 375.763H571.158L410.998 348.916C410.936 348.906 410.877 348.883 410.824 348.85C410.771 348.817 410.725 348.774 410.689 348.723C410.652 348.672 410.626 348.614 410.612 348.553C410.598 348.492 410.597 348.429 410.607 348.367C410.617 348.305 410.64 348.246 410.673 348.193C410.706 348.14 410.75 348.094 410.801 348.058C410.852 348.022 410.91 347.996 410.971 347.982C411.032 347.968 411.095 347.966 411.157 347.977L571.317 374.823C571.436 374.842 571.543 374.905 571.616 375C571.69 375.094 571.726 375.213 571.716 375.333C571.706 375.452 571.651 375.563 571.562 375.644C571.474 375.725 571.358 375.769 571.238 375.769V375.763Z" fill="#CCCCCC"/>
<path d="M586.634 370.244H586.558L424.862 343.947C424.8 343.937 424.741 343.915 424.688 343.882C424.634 343.849 424.588 343.806 424.552 343.755C424.515 343.705 424.489 343.647 424.475 343.586C424.46 343.525 424.458 343.462 424.468 343.401C424.478 343.339 424.5 343.28 424.533 343.227C424.566 343.174 424.609 343.127 424.66 343.091C424.71 343.054 424.768 343.028 424.829 343.014C424.89 342.999 424.953 342.997 425.014 343.007L586.711 369.298C586.829 369.317 586.936 369.38 587.009 369.474C587.083 369.569 587.119 369.687 587.109 369.806C587.1 369.926 587.046 370.037 586.958 370.118C586.869 370.199 586.754 370.244 586.634 370.244Z" fill="#CCCCCC"/>
<path d="M602.028 364.722H601.952L438.72 338.993C438.656 338.984 438.596 338.964 438.541 338.931C438.486 338.899 438.438 338.856 438.4 338.805C438.361 338.755 438.334 338.696 438.319 338.635C438.303 338.573 438.301 338.509 438.311 338.446C438.321 338.383 438.343 338.323 438.377 338.269C438.411 338.215 438.455 338.168 438.507 338.131C438.559 338.095 438.618 338.069 438.68 338.055C438.742 338.042 438.807 338.041 438.869 338.053L602.101 363.78C602.225 363.792 602.339 363.852 602.419 363.948C602.499 364.043 602.539 364.166 602.529 364.29C602.519 364.414 602.462 364.529 602.368 364.611C602.274 364.693 602.152 364.735 602.028 364.729V364.722Z" fill="#CCCCCC"/>
<path d="M617.415 359.213H617.342L452.577 334.047C452.516 334.038 452.456 334.016 452.402 333.984C452.349 333.951 452.302 333.909 452.265 333.858C452.228 333.808 452.201 333.751 452.186 333.69C452.171 333.629 452.168 333.566 452.178 333.504C452.187 333.442 452.208 333.383 452.241 333.329C452.273 333.276 452.316 333.229 452.366 333.192C452.417 333.155 452.474 333.128 452.535 333.113C452.596 333.098 452.659 333.095 452.721 333.105L617.486 358.27C617.609 358.283 617.722 358.343 617.801 358.438C617.881 358.533 617.92 358.655 617.911 358.778C617.902 358.902 617.845 359.017 617.752 359.099C617.66 359.181 617.539 359.224 617.415 359.219V359.213Z" fill="#CCCCCC"/>
<path d="M632.8 353.7H632.73L466.426 329.093C466.364 329.083 466.305 329.062 466.251 329.03C466.197 328.998 466.151 328.955 466.113 328.905C466.076 328.855 466.049 328.798 466.034 328.737C466.019 328.676 466.016 328.613 466.025 328.551C466.034 328.489 466.055 328.43 466.088 328.376C466.12 328.322 466.162 328.276 466.213 328.238C466.263 328.201 466.32 328.174 466.381 328.159C466.442 328.144 466.505 328.141 466.567 328.15L632.867 352.757C632.989 352.77 633.102 352.831 633.181 352.925C633.26 353.02 633.299 353.141 633.29 353.264C633.282 353.387 633.226 353.501 633.134 353.584C633.043 353.666 632.923 353.71 632.8 353.706V353.7Z" fill="#CCCCCC"/>
<path d="M648.178 348.187H648.108L480.275 324.148C480.15 324.13 480.037 324.063 479.961 323.962C479.885 323.861 479.852 323.734 479.87 323.609C479.888 323.484 479.955 323.371 480.056 323.296C480.157 323.22 480.284 323.187 480.409 323.205L648.245 347.248C648.368 347.261 648.48 347.321 648.559 347.416C648.638 347.51 648.677 347.632 648.669 347.754C648.66 347.877 648.604 347.992 648.513 348.074C648.421 348.157 648.301 348.201 648.178 348.197V348.187Z" fill="#CCCCCC"/>
<path d="M663.55 342.678H663.486L494.117 319.187C494.055 319.179 493.995 319.159 493.94 319.128C493.885 319.096 493.837 319.054 493.799 319.004C493.761 318.954 493.733 318.897 493.717 318.836C493.701 318.775 493.697 318.712 493.706 318.65C493.714 318.587 493.735 318.527 493.767 318.473C493.8 318.419 493.842 318.371 493.893 318.334C493.943 318.296 494.001 318.269 494.062 318.254C494.123 318.238 494.186 318.235 494.249 318.245L663.617 341.735C663.74 341.749 663.852 341.809 663.931 341.903C664.01 341.998 664.05 342.119 664.041 342.242C664.032 342.365 663.976 342.479 663.885 342.562C663.793 342.644 663.673 342.688 663.55 342.684V342.678Z" fill="#CCCCCC"/>
<path d="M678.919 337.168H678.855L507.96 314.245C507.835 314.228 507.721 314.163 507.644 314.062C507.567 313.962 507.533 313.835 507.549 313.709C507.566 313.584 507.632 313.47 507.732 313.393C507.833 313.316 507.96 313.282 508.085 313.299L678.983 336.222C679.105 336.236 679.217 336.296 679.296 336.39C679.375 336.484 679.414 336.605 679.406 336.727C679.398 336.85 679.343 336.964 679.252 337.047C679.161 337.13 679.042 337.174 678.919 337.171V337.168Z" fill="#CCCCCC"/>
<path d="M694.285 331.661H694.224L521.797 309.293C521.732 309.289 521.669 309.27 521.612 309.241C521.555 309.211 521.504 309.169 521.464 309.119C521.423 309.069 521.393 309.011 521.375 308.949C521.357 308.887 521.352 308.822 521.361 308.758C521.369 308.694 521.39 308.632 521.423 308.577C521.456 308.521 521.5 308.473 521.552 308.435C521.604 308.396 521.664 308.369 521.727 308.355C521.79 308.341 521.855 308.339 521.919 308.351L694.346 330.713C694.468 330.726 694.58 330.786 694.658 330.88C694.737 330.974 694.776 331.094 694.769 331.216C694.761 331.338 694.706 331.452 694.616 331.535C694.526 331.618 694.408 331.663 694.285 331.661Z" fill="#CCCCCC"/>
<path d="M580.932 311.848L417.663 370.68L418.27 372.362L581.539 313.53L580.932 311.848Z" fill="#CCCCCC"/>
<path d="M638.887 319.055L473.788 380.276L474.411 381.952L639.51 320.731L638.887 319.055Z" fill="#CCCCCC"/>
<path d="M528.916 392.539C528.799 392.538 528.681 392.528 528.565 392.508L369.156 365.357C368.7 365.281 368.283 365.055 367.97 364.716C367.656 364.378 367.464 363.945 367.424 363.485C367.383 363.025 367.497 362.565 367.746 362.177C367.995 361.789 368.366 361.494 368.801 361.339L527.893 304.291C528.201 304.178 528.531 304.141 528.855 304.184L703.878 325.774C704.344 325.831 704.777 326.043 705.107 326.377C705.437 326.71 705.645 327.145 705.697 327.612C705.749 328.078 705.642 328.548 705.393 328.946C705.145 329.343 704.769 329.646 704.327 329.804L529.622 392.417C529.395 392.497 529.157 392.538 528.916 392.539ZM377.689 362.587L528.727 388.302L694.67 328.828L528.849 308.376L377.689 362.587Z" fill="#CCCCCC"/>
<path d="M490.863 344.447L409.007 327.201V233.065L490.863 247.867V344.447Z" fill="#DEB275"/>
<path d="M409.007 233.065L442.957 222.061L468.142 215.148L546.08 228.428L490.863 247.867L409.007 233.065Z" fill="#FFCD8C"/>
<path d="M490.863 344.447L544.899 321.939L546.081 228.428L490.863 247.867V344.447Z" fill="#DEB275"/>
<path d="M523.5 236.912H523.473L442.93 222.214C442.889 222.206 442.853 222.183 442.83 222.15C442.806 222.116 442.797 222.074 442.805 222.034C442.812 221.993 442.835 221.957 442.869 221.934C442.903 221.91 442.944 221.901 442.985 221.909L523.528 236.607C523.568 236.611 523.605 236.63 523.631 236.661C523.658 236.693 523.67 236.733 523.666 236.773C523.663 236.814 523.643 236.851 523.612 236.877C523.581 236.903 523.541 236.916 523.5 236.912Z" fill="#B38358"/>
<path d="M491.296 248.233C491.258 248.236 491.22 248.224 491.19 248.2C491.16 248.176 491.14 248.142 491.133 248.104C491.127 248.066 491.134 248.027 491.155 247.995C491.176 247.962 491.207 247.938 491.244 247.928L545.769 228.766C545.788 228.758 545.809 228.753 545.83 228.753C545.852 228.753 545.873 228.757 545.892 228.765C545.912 228.774 545.929 228.786 545.943 228.801C545.958 228.817 545.969 228.835 545.976 228.855C545.983 228.875 545.986 228.896 545.984 228.917C545.983 228.938 545.977 228.959 545.967 228.977C545.957 228.996 545.943 229.012 545.926 229.025C545.91 229.039 545.89 229.048 545.87 229.053L491.348 248.218L491.296 248.233Z" fill="#B38358"/>
<g style="mix-blend-mode:soft-light">
<path d="M438.823 223.465L518.536 238.422V259.561L526.767 255.692L527.347 235.426L448.407 220.661L438.823 223.465Z" fill="white"/>
</g>
<path d="M606.965 347.019L525.109 329.773V235.634L606.965 250.439V347.019Z" fill="#DEB275"/>
<path d="M525.109 235.634L559.059 224.633L584.244 217.72L662.182 230.997L606.965 250.439L525.109 235.634Z" fill="#FFCD8C"/>
<path d="M606.965 347.019L661.001 324.511L662.182 230.997L606.965 250.439V347.019Z" fill="#E8BB7F"/>
<path d="M639.602 239.481H639.575L559.032 224.782C558.991 224.775 558.955 224.752 558.932 224.718C558.908 224.684 558.899 224.643 558.907 224.602C558.914 224.562 558.937 224.526 558.971 224.503C559.004 224.479 559.046 224.47 559.087 224.477L639.629 239.176C639.67 239.179 639.707 239.199 639.733 239.23C639.759 239.261 639.772 239.301 639.768 239.342C639.765 239.382 639.745 239.42 639.714 239.446C639.683 239.472 639.642 239.484 639.602 239.481Z" fill="#B38358"/>
<path d="M607.392 250.802C607.354 250.804 607.316 250.792 607.286 250.769C607.256 250.745 607.235 250.711 607.229 250.673C607.222 250.635 607.23 250.596 607.251 250.563C607.271 250.531 607.303 250.507 607.34 250.497L661.865 231.335C661.903 231.322 661.946 231.324 661.982 231.342C662.019 231.36 662.047 231.391 662.06 231.43C662.074 231.468 662.071 231.51 662.053 231.547C662.036 231.584 662.004 231.612 661.966 231.625L607.444 250.787L607.392 250.802Z" fill="#B38358"/>
<g style="mix-blend-mode:soft-light">
<path d="M554.922 226.033L634.638 240.994V262.129L642.869 258.261L643.449 237.995L564.509 223.229L554.922 226.033Z" fill="white"/>
</g>
<g style="mix-blend-mode:hard-light" opacity="0.2">
<path d="M587.822 246.976L634.427 235.139L540.756 231.982V244.499L525.109 241.07V329.773L580.287 339.807L587.822 246.976Z" fill="black"/>
</g>
<path d="M525.066 371.98L443.214 354.734V260.595L525.066 275.4V371.98Z" fill="#E8BB7F"/>
<path d="M443.214 260.595L477.161 249.594L502.349 242.678L580.287 255.958L525.066 275.4L443.214 260.595Z" fill="#FFCD8C"/>
<path d="M525.066 371.98L579.106 349.472L580.287 255.958L525.066 275.4V371.98Z" fill="#DEB275"/>
<path d="M557.707 264.442H557.679L477.133 249.74C477.113 249.736 477.094 249.729 477.077 249.717C477.06 249.706 477.045 249.692 477.034 249.675C477.022 249.658 477.014 249.639 477.01 249.619C477.006 249.599 477.006 249.579 477.01 249.559C477.013 249.539 477.021 249.519 477.032 249.502C477.044 249.485 477.058 249.471 477.075 249.459C477.092 249.448 477.111 249.44 477.131 249.436C477.151 249.431 477.171 249.431 477.191 249.435L557.734 264.133C557.775 264.137 557.812 264.157 557.838 264.188C557.864 264.219 557.877 264.259 557.873 264.3C557.869 264.34 557.85 264.378 557.819 264.404C557.787 264.43 557.747 264.442 557.707 264.439V264.442Z" fill="#B38358"/>
<path d="M525.491 275.763C525.459 275.763 525.427 275.753 525.401 275.734C525.375 275.716 525.355 275.689 525.344 275.659C525.331 275.621 525.334 275.579 525.352 275.542C525.37 275.506 525.401 275.478 525.439 275.464L579.964 256.302C580.002 256.289 580.044 256.292 580.081 256.309C580.117 256.327 580.146 256.359 580.159 256.397C580.172 256.435 580.17 256.478 580.152 256.514C580.134 256.551 580.103 256.579 580.064 256.592L525.54 275.754C525.524 275.76 525.507 275.763 525.491 275.763Z" fill="#B38358"/>
<g style="mix-blend-mode:soft-light">
<path d="M473.027 250.994L552.742 265.955V287.09L560.973 283.222L561.553 262.956L482.613 248.19L473.027 250.994Z" fill="white"/>
</g>
<g style="mix-blend-mode:hard-light" opacity="0.2">
<path d="M443.214 277.978H496.209L503.353 271.471L550.266 251.32L502.349 242.678L443.214 260.595V277.978Z" fill="black"/>
</g>
<path d="M567.461 249.249L634.427 235.139V158.124L567.461 170.235V249.249Z" fill="#E8BB7F"/>
<path d="M634.427 158.124L606.653 149.121L586.048 143.465L522.285 154.329L567.461 170.235L634.427 158.124Z" fill="#FFCD8C"/>
<path d="M567.461 249.249L523.25 230.835L522.285 154.329L567.461 170.235V249.249Z" fill="#C99D62"/>
<g style="mix-blend-mode:hard-light" opacity="0.2">
<path d="M578.464 168.243L567.461 176.687L551.249 187.82L550.266 242.086L542.002 238.498V161.046L567.461 170.235L578.464 168.243Z" fill="black"/>
</g>
<path d="M540.756 161.269C540.726 161.268 540.697 161.256 540.675 161.235C540.653 161.214 540.639 161.185 540.637 161.155C540.634 161.125 540.643 161.095 540.661 161.07C540.679 161.046 540.705 161.029 540.735 161.022L606.629 148.996C606.662 148.99 606.696 148.997 606.723 149.016C606.751 149.035 606.769 149.064 606.775 149.097C606.782 149.13 606.774 149.163 606.755 149.191C606.737 149.218 606.707 149.237 606.675 149.243L540.78 161.269H540.756Z" fill="#B38358"/>
<path d="M567.11 170.531H567.067L522.462 154.854C522.434 154.841 522.412 154.817 522.4 154.789C522.388 154.76 522.387 154.728 522.397 154.699C522.407 154.67 522.428 154.645 522.455 154.63C522.483 154.616 522.514 154.611 522.545 154.619L567.153 170.293C567.182 170.303 567.206 170.322 567.222 170.348C567.237 170.374 567.243 170.404 567.238 170.434C567.233 170.464 567.217 170.491 567.193 170.51C567.17 170.529 567.14 170.538 567.11 170.537V170.531Z" fill="#B38358"/>
<g style="mix-blend-mode:soft-light">
<path d="M610.036 150.268L544.82 162.508V179.799L538.085 176.636L537.611 160.055L602.193 147.974L610.036 150.268Z" fill="white"/>
</g>
<path d="M499.137 273.283L428.263 258.349V176.84L499.137 189.659V273.283Z" fill="#E8BB7F"/>
<path d="M428.263 176.84L457.658 167.313L479.466 161.327L546.948 172.825L499.137 189.659L428.263 176.84Z" fill="#FFCD8C"/>
<path d="M499.137 273.283L545.928 253.795L546.948 172.825L499.137 189.659V273.283Z" fill="#DEB275"/>
<path d="M527.399 180.172H527.374L457.633 167.447C457.615 167.446 457.596 167.44 457.58 167.431C457.563 167.422 457.548 167.41 457.537 167.395C457.525 167.38 457.517 167.363 457.513 167.345C457.508 167.326 457.508 167.307 457.511 167.289C457.515 167.27 457.522 167.252 457.533 167.237C457.544 167.221 457.557 167.208 457.574 167.199C457.59 167.189 457.608 167.182 457.626 167.18C457.645 167.178 457.664 167.179 457.682 167.185L527.42 179.912C527.437 179.915 527.454 179.921 527.469 179.93C527.484 179.939 527.497 179.951 527.507 179.965C527.517 179.98 527.524 179.996 527.527 180.013C527.531 180.03 527.531 180.048 527.527 180.065C527.521 180.095 527.506 180.122 527.482 180.141C527.459 180.161 527.429 180.171 527.399 180.172Z" fill="#B38358"/>
<path d="M499.509 189.973C499.482 189.974 499.455 189.965 499.432 189.949C499.41 189.934 499.393 189.911 499.384 189.885C499.372 189.852 499.374 189.815 499.389 189.783C499.404 189.751 499.43 189.727 499.463 189.714L546.673 173.136C546.706 173.125 546.743 173.127 546.774 173.142C546.806 173.157 546.831 173.184 546.842 173.217C546.854 173.25 546.852 173.287 546.837 173.319C546.822 173.351 546.795 173.375 546.761 173.387L499.54 189.964L499.509 189.973Z" fill="#B38358"/>
<g style="mix-blend-mode:soft-light">
<path d="M454.077 168.527L523.1 181.48V199.782L530.226 196.432L530.73 178.884L462.378 166.098L454.077 168.527Z" fill="white"/>
</g>
<g style="mix-blend-mode:hard-light" opacity="0.2">
<path d="M485.096 163.334L481.075 164.439L518.154 183.106L546.719 212.302L546.948 172.825L485.096 163.334Z" fill="black"/>
</g>
<path d="M518.154 183.106L578.354 170.421V101.188L518.154 112.076V183.106Z" fill="#E8BB7F"/>
<path d="M578.354 101.188L553.387 93.0945L534.864 88.012L477.545 97.7773L518.154 112.076L578.354 101.188Z" fill="#FFCD8C"/>
<path d="M518.154 183.106L478.412 166.553L477.545 97.7773L518.154 112.076V183.106Z" fill="#DEB275"/>
<path d="M494.151 104.016C494.125 104.017 494.099 104.008 494.079 103.991C494.059 103.974 494.046 103.951 494.041 103.925C494.038 103.91 494.038 103.895 494.041 103.881C494.044 103.866 494.049 103.853 494.057 103.84C494.066 103.828 494.076 103.818 494.089 103.81C494.101 103.802 494.115 103.796 494.13 103.794L553.359 92.9849C553.374 92.9818 553.388 92.9816 553.403 92.9844C553.417 92.9872 553.431 92.9929 553.444 93.0012C553.456 93.0094 553.466 93.0201 553.474 93.0325C553.482 93.0449 553.488 93.0588 553.49 93.0733C553.495 93.1028 553.488 93.1328 553.471 93.1572C553.454 93.1816 553.428 93.1986 553.399 93.2045L494.169 104.013L494.151 104.016Z" fill="#B38358"/>
<path d="M517.84 112.342H517.803L477.704 98.2472C477.69 98.2428 477.677 98.2354 477.665 98.2257C477.654 98.216 477.645 98.204 477.638 98.1906C477.632 98.1772 477.628 98.1626 477.627 98.1476C477.626 98.1327 477.629 98.1178 477.634 98.1038C477.644 98.0761 477.665 98.0535 477.692 98.0409C477.719 98.0283 477.749 98.0269 477.777 98.0367L517.876 112.122C517.902 112.131 517.923 112.148 517.937 112.171C517.95 112.194 517.956 112.221 517.951 112.247C517.947 112.274 517.933 112.298 517.913 112.315C517.892 112.332 517.866 112.342 517.84 112.342Z" fill="#B38358"/>
<g style="mix-blend-mode:soft-light">
<path d="M556.427 94.1258L497.802 105.13V120.673L491.748 117.83L491.321 102.924L549.378 92.0635L556.427 94.1258Z" fill="white"/>
</g>
<path d="M385.154 366.455C385.037 366.454 384.925 366.411 384.838 366.334C384.75 366.256 384.695 366.15 384.68 366.034L367.953 226.027C367.938 225.901 367.974 225.775 368.052 225.675C368.131 225.576 368.245 225.511 368.371 225.496C368.433 225.489 368.496 225.493 368.557 225.51C368.617 225.527 368.673 225.556 368.723 225.595C368.772 225.634 368.813 225.682 368.843 225.737C368.873 225.792 368.892 225.852 368.899 225.914L385.615 365.921C385.629 366.047 385.594 366.173 385.515 366.273C385.437 366.372 385.322 366.437 385.196 366.452L385.154 366.455Z" fill="#E6E6E6"/>
<path d="M405.676 369.948C405.559 369.947 405.446 369.904 405.359 369.826C405.272 369.748 405.217 369.64 405.203 369.524L389.352 228.596C389.344 228.533 389.348 228.47 389.365 228.409C389.382 228.348 389.411 228.291 389.45 228.242C389.489 228.192 389.537 228.151 389.592 228.12C389.647 228.089 389.708 228.07 389.771 228.063C389.833 228.056 389.897 228.061 389.957 228.079C390.018 228.096 390.075 228.126 390.124 228.166C390.173 228.205 390.213 228.254 390.243 228.31C390.273 228.365 390.292 228.426 390.298 228.489L406.153 369.433C406.166 369.558 406.13 369.684 406.051 369.782C405.972 369.88 405.857 369.943 405.731 369.957L405.676 369.948Z" fill="#E6E6E6"/>
<path d="M426.51 373.496C426.393 373.496 426.279 373.452 426.192 373.374C426.104 373.295 426.049 373.186 426.037 373.069L411.077 231.21C411.064 231.084 411.102 230.959 411.182 230.861C411.262 230.762 411.377 230.7 411.503 230.687C411.629 230.674 411.755 230.712 411.853 230.791C411.951 230.871 412.014 230.987 412.027 231.113L426.987 372.972C426.993 373.034 426.988 373.097 426.97 373.157C426.953 373.217 426.923 373.273 426.884 373.322C426.844 373.371 426.796 373.411 426.74 373.441C426.685 373.471 426.625 373.49 426.562 373.496H426.51Z" fill="#E6E6E6"/>
<path d="M447.656 377.096C447.538 377.096 447.424 377.052 447.336 376.972C447.249 376.893 447.194 376.783 447.183 376.666L433.139 233.852C433.127 233.726 433.165 233.601 433.245 233.503C433.326 233.406 433.442 233.344 433.568 233.332C433.694 233.32 433.819 233.358 433.917 233.438C434.014 233.519 434.076 233.635 434.088 233.76L448.132 376.574C448.144 376.7 448.106 376.825 448.026 376.922C447.946 377.019 447.83 377.081 447.705 377.093L447.656 377.096Z" fill="#E6E6E6"/>
<path d="M469.128 380.751C469.009 380.75 468.894 380.706 468.806 380.626C468.718 380.546 468.663 380.436 468.652 380.318L455.576 236.543C455.564 236.417 455.603 236.292 455.684 236.195C455.765 236.098 455.882 236.037 456.008 236.026C456.134 236.014 456.259 236.053 456.356 236.134C456.453 236.215 456.514 236.331 456.525 236.457L469.617 380.232C469.622 380.294 469.616 380.357 469.597 380.417C469.579 380.476 469.549 380.532 469.509 380.579C469.469 380.627 469.42 380.667 469.364 380.696C469.309 380.725 469.248 380.742 469.186 380.748L469.128 380.751Z" fill="#E6E6E6"/>
<path d="M490.927 384.464C490.807 384.463 490.691 384.418 490.603 384.337C490.515 384.255 490.461 384.144 490.451 384.024L478.342 239.279C478.332 239.154 478.372 239.029 478.453 238.932C478.535 238.836 478.651 238.776 478.777 238.765C478.903 238.755 479.028 238.795 479.125 238.876C479.221 238.958 479.281 239.074 479.292 239.2L491.4 383.942C491.406 384.004 491.399 384.067 491.38 384.127C491.361 384.186 491.331 384.242 491.29 384.289C491.25 384.337 491.201 384.377 491.145 384.406C491.09 384.434 491.029 384.452 490.967 384.457L490.927 384.464Z" fill="#E6E6E6"/>
<path d="M513.062 388.231C512.942 388.231 512.826 388.186 512.738 388.104C512.65 388.023 512.595 387.912 512.585 387.792L501.494 242.059C501.487 241.996 501.494 241.932 501.512 241.871C501.531 241.811 501.562 241.754 501.603 241.706C501.643 241.657 501.693 241.617 501.75 241.588C501.806 241.559 501.868 241.542 501.931 241.537C501.994 241.532 502.058 241.54 502.118 241.56C502.178 241.58 502.234 241.612 502.281 241.654C502.329 241.695 502.368 241.746 502.396 241.803C502.424 241.86 502.44 241.922 502.443 241.985L513.538 387.719C513.547 387.845 513.506 387.969 513.424 388.064C513.341 388.16 513.224 388.219 513.098 388.228L513.062 388.231Z" fill="#E6E6E6"/>
<path d="M528.916 391.944C528.832 391.943 528.749 391.936 528.666 391.923L369.256 364.771C368.942 364.716 368.653 364.561 368.433 364.329C368.213 364.097 368.074 363.801 368.035 363.484L351.02 224.224C350.995 224.002 351.02 223.777 351.093 223.566C351.167 223.354 351.287 223.162 351.445 223.004C351.603 222.845 351.795 222.724 352.006 222.651C352.218 222.577 352.444 222.553 352.666 222.58L519.455 242.629C519.8 242.67 520.12 242.831 520.359 243.083C520.598 243.334 520.741 243.662 520.765 244.008L530.403 390.349C530.416 390.552 530.388 390.756 530.319 390.948C530.251 391.14 530.143 391.316 530.004 391.465C529.865 391.614 529.696 391.733 529.509 391.814C529.322 391.895 529.12 391.938 528.916 391.938V391.944ZM370.85 362.032L527.323 388.671L517.873 245.439L354.214 225.759L370.85 362.032Z" fill="#E6E6E6"/>
<path d="M359.12 267.356L358.852 269.121L522.966 294.039L523.235 292.274L359.12 267.356Z" fill="#E6E6E6"/>
<path d="M364.325 317.519L364.057 319.283L525.65 343.819L525.919 342.054L364.325 317.519Z" fill="#E6E6E6"/>
<path d="M528.916 391.944C528.538 391.943 528.175 391.799 527.899 391.541C527.623 391.283 527.455 390.93 527.429 390.553L517.791 244.2C517.77 243.89 517.847 243.581 518.011 243.316C518.176 243.052 518.419 242.846 518.707 242.727L714.448 162.493C714.682 162.397 714.937 162.362 715.189 162.392C715.44 162.421 715.68 162.515 715.885 162.663C716.09 162.811 716.255 163.009 716.362 163.238C716.47 163.467 716.517 163.72 716.499 163.972L705.102 327.934C705.083 328.222 704.98 328.499 704.805 328.729C704.63 328.959 704.392 329.134 704.119 329.23L529.42 391.856C529.258 391.913 529.088 391.943 528.916 391.944ZM520.835 245.073L530.272 388.387L702.205 326.762L713.367 166.163L520.835 245.073Z" fill="#E6E6E6"/>
<path d="M710.966 216.302L522.15 292.263L522.817 293.919L711.633 217.958L710.966 216.302Z" fill="#E6E6E6"/>
<path d="M707.081 272.08L525.413 342.053L526.057 343.721L707.724 273.748L707.081 272.08Z" fill="#E6E6E6"/>
<path d="M543.846 385.58C543.725 385.58 543.608 385.534 543.52 385.451C543.432 385.368 543.38 385.255 543.372 385.135L533.429 238.141C533.422 238.077 533.428 238.013 533.446 237.951C533.465 237.89 533.495 237.833 533.537 237.783C533.578 237.734 533.629 237.694 533.686 237.665C533.743 237.635 533.806 237.618 533.87 237.614C533.934 237.61 533.998 237.618 534.059 237.639C534.12 237.661 534.176 237.694 534.223 237.737C534.271 237.78 534.309 237.833 534.335 237.891C534.362 237.95 534.377 238.013 534.378 238.077L544.328 385.07C544.333 385.133 544.325 385.195 544.305 385.255C544.285 385.314 544.254 385.369 544.213 385.416C544.171 385.463 544.121 385.502 544.065 385.529C544.009 385.557 543.948 385.573 543.885 385.577L543.846 385.58Z" fill="#E6E6E6"/>
<path d="M557.792 380.586C557.671 380.586 557.554 380.54 557.466 380.456C557.378 380.373 557.325 380.259 557.319 380.138L549.167 231.689C549.16 231.563 549.204 231.439 549.288 231.345C549.373 231.251 549.491 231.194 549.618 231.187C549.744 231.18 549.868 231.224 549.962 231.308C550.056 231.393 550.113 231.511 550.12 231.637L558.268 380.083C558.272 380.145 558.263 380.208 558.243 380.267C558.222 380.326 558.19 380.381 558.149 380.427C558.107 380.474 558.056 380.512 558 380.539C557.943 380.567 557.882 380.582 557.82 380.586H557.792Z" fill="#E6E6E6"/>
<path d="M571.873 375.534C571.75 375.533 571.633 375.486 571.544 375.401C571.456 375.317 571.403 375.202 571.397 375.079L565.086 225.154C565.081 225.028 565.126 224.905 565.211 224.812C565.297 224.719 565.416 224.664 565.542 224.659C565.669 224.653 565.792 224.698 565.885 224.784C565.978 224.87 566.033 224.988 566.038 225.115L572.349 375.037C572.352 375.099 572.342 375.162 572.321 375.221C572.3 375.279 572.267 375.333 572.225 375.38C572.183 375.426 572.132 375.463 572.075 375.49C572.018 375.516 571.957 375.531 571.894 375.534H571.873Z" fill="#E6E6E6"/>
<path d="M586.088 370.439C585.964 370.439 585.845 370.39 585.756 370.303C585.667 370.217 585.616 370.099 585.612 369.976L581.175 218.553C581.172 218.426 581.219 218.304 581.305 218.212C581.392 218.12 581.512 218.067 581.638 218.063C581.764 218.059 581.887 218.106 581.979 218.193C582.071 218.279 582.124 218.399 582.128 218.525L586.552 369.948C586.554 370.011 586.544 370.073 586.522 370.132C586.5 370.191 586.467 370.244 586.424 370.29C586.381 370.336 586.33 370.372 586.273 370.398C586.215 370.424 586.154 370.438 586.091 370.439H586.088Z" fill="#E6E6E6"/>
<path d="M600.44 365.296C600.315 365.296 600.195 365.247 600.106 365.159C600.017 365.071 599.966 364.951 599.964 364.826L597.439 211.881C597.438 211.755 597.487 211.633 597.575 211.542C597.663 211.452 597.783 211.399 597.909 211.396C597.972 211.395 598.035 211.406 598.093 211.429C598.152 211.452 598.205 211.486 598.25 211.53C598.295 211.573 598.331 211.626 598.356 211.683C598.381 211.741 598.394 211.803 598.395 211.866L600.917 364.811C600.918 364.873 600.907 364.935 600.884 364.994C600.861 365.052 600.827 365.105 600.784 365.15C600.74 365.195 600.688 365.231 600.631 365.256C600.574 365.281 600.512 365.295 600.45 365.296H600.44Z" fill="#E6E6E6"/>
<path d="M614.945 360.104C614.819 360.103 614.698 360.052 614.608 359.963C614.519 359.874 614.468 359.754 614.466 359.628L613.898 205.136C613.897 205.073 613.909 205.011 613.933 204.953C613.956 204.895 613.991 204.842 614.035 204.797C614.079 204.753 614.131 204.717 614.189 204.693C614.247 204.669 614.309 204.657 614.371 204.657C614.498 204.657 614.619 204.707 614.708 204.796C614.798 204.885 614.848 205.006 614.848 205.133L615.419 359.625C615.418 359.751 615.368 359.872 615.278 359.961C615.189 360.051 615.069 360.102 614.942 360.104H614.945Z" fill="#E6E6E6"/>
<path d="M629.563 354.859C629.437 354.858 629.316 354.806 629.227 354.716C629.139 354.625 629.089 354.504 629.09 354.377L630.516 198.314C630.516 198.252 630.528 198.19 630.552 198.133C630.576 198.075 630.611 198.023 630.656 197.979C630.7 197.935 630.753 197.9 630.81 197.876C630.868 197.853 630.93 197.841 630.992 197.841C631.119 197.843 631.24 197.895 631.328 197.985C631.417 198.075 631.466 198.197 631.466 198.323L630.04 354.386C630.04 354.449 630.027 354.511 630.003 354.568C629.979 354.626 629.944 354.678 629.9 354.722C629.856 354.766 629.803 354.801 629.745 354.824C629.688 354.848 629.626 354.86 629.563 354.859Z" fill="#E6E6E6"/>
<path d="M644.34 349.563C644.278 349.562 644.216 349.548 644.159 349.522C644.102 349.497 644.05 349.461 644.007 349.415C643.964 349.37 643.93 349.317 643.908 349.258C643.885 349.2 643.875 349.138 643.876 349.075L647.335 191.419C647.338 191.293 647.39 191.173 647.481 191.086C647.572 190.998 647.695 190.95 647.821 190.953C647.947 190.955 648.067 191.008 648.155 191.099C648.243 191.19 648.29 191.312 648.288 191.438L644.829 349.096C644.826 349.223 644.772 349.343 644.681 349.431C644.589 349.518 644.467 349.566 644.34 349.563Z" fill="#E6E6E6"/>
<path d="M659.261 344.215H659.242C659.18 344.213 659.118 344.199 659.061 344.173C659.004 344.147 658.952 344.11 658.91 344.064C658.867 344.018 658.834 343.964 658.813 343.905C658.791 343.846 658.781 343.784 658.784 343.721L664.323 184.446C664.328 184.319 664.383 184.2 664.476 184.114C664.568 184.028 664.691 183.982 664.817 183.985C664.88 183.987 664.941 184.002 664.998 184.028C665.055 184.054 665.106 184.091 665.149 184.137C665.191 184.183 665.224 184.237 665.246 184.296C665.268 184.354 665.278 184.417 665.275 184.479L659.737 343.755C659.732 343.878 659.68 343.995 659.591 344.081C659.503 344.166 659.384 344.215 659.261 344.215Z" fill="#E6E6E6"/>
<path d="M674.327 338.815H674.303C674.24 338.812 674.179 338.797 674.122 338.77C674.066 338.743 674.015 338.705 673.973 338.659C673.931 338.612 673.899 338.558 673.878 338.499C673.857 338.44 673.848 338.378 673.851 338.315L681.502 177.407C681.508 177.281 681.564 177.163 681.658 177.078C681.751 176.993 681.875 176.948 682.001 176.954C682.128 176.96 682.246 177.016 682.331 177.11C682.416 177.204 682.461 177.327 682.455 177.453L674.791 338.376C674.782 338.494 674.73 338.604 674.644 338.685C674.558 338.766 674.446 338.813 674.327 338.815Z" fill="#E6E6E6"/>
<path d="M689.544 333.361H689.517C689.454 333.357 689.393 333.341 689.336 333.314C689.28 333.287 689.229 333.249 689.188 333.202C689.146 333.155 689.114 333.101 689.093 333.042C689.073 332.983 689.064 332.92 689.068 332.857L698.899 170.254C698.906 170.127 698.964 170.009 699.059 169.925C699.153 169.842 699.278 169.799 699.404 169.807C699.53 169.814 699.648 169.872 699.732 169.966C699.816 170.061 699.859 170.185 699.851 170.311L690.02 332.915C690.012 333.036 689.958 333.149 689.87 333.231C689.781 333.314 689.665 333.36 689.544 333.361Z" fill="#E6E6E6"/>
<path d="M1307.58 451.22L1402.98 480.561L1442.57 483.072L1516.34 510.08L1625.72 487.038L1456.98 424.196L1307.58 451.22Z" fill="url(#paint9_linear_143_360)"/>
<path d="M1410.92 472.993L1307.58 451.22V332.375L1410.92 351.061V472.993Z" fill="#E8BB7F"/>
<path d="M1307.58 332.375L1350.43 318.482L1382.23 309.754L1480.63 326.518L1410.92 351.061L1307.58 332.375Z" fill="#FFCD8C"/>
<path d="M1410.92 472.993L1479.14 444.578L1480.63 326.518L1410.92 351.061V472.993Z" fill="#B28E5E"/>
<g style="mix-blend-mode:hard-light" opacity="0.2">
<path d="M1393.93 347.992L1410.92 361.019L1435.93 378.197L1437.45 461.943L1450.2 456.406V336.885L1410.92 351.061L1393.93 347.992Z" fill="black"/>
</g>
<path d="M1452.12 337.229C1452.17 337.229 1452.21 337.211 1452.25 337.178C1452.28 337.146 1452.31 337.101 1452.31 337.054C1452.31 337.006 1452.3 336.958 1452.27 336.92C1452.24 336.882 1452.2 336.856 1452.15 336.848L1350.47 318.29C1350.42 318.281 1350.37 318.292 1350.33 318.322C1350.28 318.351 1350.25 318.395 1350.24 318.446C1350.24 318.471 1350.24 318.497 1350.25 318.522C1350.25 318.546 1350.26 318.57 1350.28 318.591C1350.29 318.612 1350.31 318.63 1350.33 318.644C1350.35 318.658 1350.38 318.667 1350.4 318.671L1452.09 337.226L1452.12 337.229Z" fill="#199969"/>
<path d="M1411.46 351.522C1411.48 351.526 1411.5 351.526 1411.52 351.522L1480.35 327.329C1480.4 327.313 1480.44 327.278 1480.46 327.232C1480.49 327.186 1480.49 327.133 1480.47 327.085C1480.46 327.037 1480.42 326.997 1480.37 326.975C1480.33 326.953 1480.27 326.95 1480.23 326.966L1411.39 351.159C1411.37 351.167 1411.35 351.18 1411.33 351.197C1411.31 351.214 1411.29 351.234 1411.28 351.257C1411.27 351.28 1411.26 351.305 1411.26 351.331C1411.26 351.356 1411.26 351.382 1411.27 351.406C1411.29 351.442 1411.31 351.472 1411.35 351.493C1411.38 351.513 1411.42 351.523 1411.46 351.522Z" fill="#B38358"/>
<g style="mix-blend-mode:soft-light">
<path d="M1345.21 320.252L1445.85 339.139V365.824L1456.24 360.939L1456.98 335.353L1357.32 316.713L1345.21 320.252Z" fill="white"/>
</g>
<path d="M1516.34 510.08L1625.72 487.038V361.257L1516.34 381.034V510.08Z" fill="#DEB275"/>
<path d="M1625.72 361.257L1580.35 346.555L1546.7 337.318L1442.57 355.061L1516.34 381.035L1625.72 361.257Z" fill="#FFCD8C"/>
<path d="M1516.34 510.08L1444.14 480.006L1442.57 355.061L1516.34 381.034V510.08Z" fill="#E8BB7F"/>
<path d="M1472.74 366.397H1472.77L1580.39 346.756C1580.42 346.754 1580.45 346.746 1580.47 346.733C1580.5 346.719 1580.52 346.7 1580.54 346.678C1580.56 346.655 1580.57 346.629 1580.58 346.601C1580.58 346.573 1580.58 346.544 1580.58 346.516C1580.57 346.487 1580.56 346.46 1580.55 346.437C1580.53 346.413 1580.51 346.393 1580.48 346.378C1580.46 346.363 1580.43 346.353 1580.4 346.35C1580.37 346.346 1580.35 346.348 1580.32 346.357L1472.7 365.994C1472.65 366.003 1472.6 366.03 1472.57 366.071C1472.54 366.112 1472.53 366.163 1472.53 366.214C1472.54 366.265 1472.56 366.312 1472.6 366.347C1472.64 366.381 1472.69 366.4 1472.74 366.4V366.397Z" fill="#DCBBEF"/>
<path d="M1515.77 381.523C1515.82 381.523 1515.86 381.51 1515.89 381.485C1515.93 381.461 1515.95 381.426 1515.97 381.386C1515.99 381.335 1515.98 381.279 1515.96 381.23C1515.94 381.182 1515.89 381.144 1515.84 381.126L1442.99 355.521C1442.97 355.512 1442.94 355.508 1442.91 355.51C1442.88 355.511 1442.86 355.518 1442.83 355.529C1442.81 355.541 1442.79 355.557 1442.77 355.577C1442.75 355.597 1442.74 355.621 1442.73 355.646C1442.71 355.698 1442.71 355.754 1442.74 355.803C1442.76 355.852 1442.8 355.89 1442.85 355.909L1515.71 381.501C1515.73 381.513 1515.75 381.52 1515.77 381.523Z" fill="#DCBBEF"/>
<g style="mix-blend-mode:soft-light">
<path d="M1585.88 348.428L1479.37 368.417V396.657L1468.37 391.489L1467.6 364.411L1573.07 344.682L1585.88 348.428Z" fill="white"/>
</g>
<g style="mix-blend-mode:hard-light" opacity="0.2">
<path d="M1538.01 340.414L1544.22 342.119L1487 370.924L1442.92 415.978L1442.57 355.061L1538.01 340.414Z" fill="black"/>
</g>
<path d="M1487 370.924L1394.1 351.351V244.514L1487 261.315V370.924Z" fill="#E8BB7F"/>
<path d="M1394.1 244.514L1432.63 232.025L1461.21 224.181L1549.67 239.249L1487 261.315L1394.1 244.514Z" fill="#FFCD8C"/>
<path d="M1487 370.924L1548.33 345.381L1549.67 239.249L1487 261.315V370.924Z" fill="#DEB275"/>
<path d="M1524.04 248.88C1524.08 248.88 1524.12 248.863 1524.16 248.834C1524.19 248.804 1524.21 248.764 1524.21 248.721C1524.22 248.678 1524.2 248.636 1524.18 248.601C1524.15 248.567 1524.11 248.543 1524.07 248.535L1432.66 231.854C1432.64 231.849 1432.62 231.849 1432.59 231.853C1432.57 231.857 1432.55 231.866 1432.53 231.879C1432.51 231.892 1432.49 231.908 1432.48 231.928C1432.47 231.947 1432.46 231.969 1432.45 231.992C1432.45 232.015 1432.45 232.038 1432.46 232.061C1432.46 232.084 1432.47 232.105 1432.48 232.124C1432.5 232.143 1432.51 232.159 1432.53 232.171C1432.55 232.184 1432.57 232.192 1432.6 232.196L1524.01 248.877L1524.04 248.88Z" fill="#A159D1"/>
<path d="M1487.48 261.727C1487.5 261.73 1487.52 261.73 1487.54 261.727L1549.42 239.978C1549.44 239.973 1549.47 239.963 1549.49 239.948C1549.51 239.933 1549.52 239.915 1549.54 239.893C1549.55 239.872 1549.55 239.848 1549.56 239.824C1549.56 239.799 1549.56 239.775 1549.55 239.751C1549.54 239.728 1549.53 239.707 1549.51 239.689C1549.49 239.671 1549.47 239.657 1549.45 239.648C1549.43 239.638 1549.4 239.634 1549.38 239.634C1549.35 239.635 1549.33 239.641 1549.31 239.652L1487.43 261.397C1487.39 261.41 1487.36 261.437 1487.33 261.472C1487.31 261.507 1487.31 261.549 1487.31 261.59C1487.32 261.63 1487.34 261.667 1487.37 261.694C1487.4 261.721 1487.44 261.736 1487.48 261.736V261.727Z" fill="#A159D1"/>
<g style="mix-blend-mode:soft-light">
<path d="M1427.94 233.617L1518.41 250.594V274.582L1527.75 270.195L1528.41 247.193L1438.81 230.435L1427.94 233.617Z" fill="white"/>
</g>
<path opacity="0.15" d="M600.999 594.866L1414.73 594.296C1437.81 594.296 1435.03 580.522 1428.45 569.81L1373.42 473.447H647.821L584.537 583.627C581.667 588.646 585.218 596.687 600.999 594.866Z" fill="#C6C6C6"/>
<path d="M1389.64 585.595H617.718C602.034 585.595 586.576 580.97 580.867 571.995H1426.49C1426.49 571.995 1422.27 585.595 1389.64 585.595Z" fill="#CCCCCC"/>
<path d="M1416.45 575.851H590.194C583.581 575.851 575.845 573.41 583.545 560.597L642.597 461.665C646.566 455.03 652.977 451.088 659.835 451.088H1346.81C1353.66 451.088 1360.09 455.03 1364.05 461.665L1423.09 560.6C1431.22 575.851 1423.06 575.851 1416.45 575.851Z" fill="white"/>
<path d="M590.194 572.816C585.694 572.816 583.569 571.595 583.081 570.485C582.852 569.957 582.357 567.815 585.63 562.361L644.685 463.423C648.16 457.602 653.823 454.127 659.835 454.127H1346.81C1352.82 454.127 1358.49 457.602 1361.96 463.423L1420.97 562.287C1424.63 569.185 1423.9 571.189 1423.8 571.394C1423.14 572.815 1418.79 572.816 1416.45 572.816H590.194Z" fill="#E6E6E6"/>
<path d="M696.838 473.45H661.953L668.145 461.025H702.385L696.838 473.45Z" fill="#F5F5F5"/>
<path d="M742.276 473.45H707.395L712.747 461.025H746.987L742.276 473.45Z" fill="#F5F5F5"/>
<path d="M787.718 473.45H752.834L757.352 461.025H791.589L787.718 473.45Z" fill="#F5F5F5"/>
<path d="M833.16 473.45H798.276L801.955 461.025H836.195L833.16 473.45Z" fill="#F5F5F5"/>
<path d="M878.602 473.45H843.717L846.557 461.025H880.797L878.602 473.45Z" fill="#F5F5F5"/>
<path d="M924.043 473.45H889.159L891.159 461.025H925.399L924.043 473.45Z" fill="#F5F5F5"/>
<path d="M969.485 473.45H934.601L935.761 461.025H970.001L969.485 473.45Z" fill="#F5F5F5"/>
<path d="M1014.93 473.45H980.043L980.363 461.025H1014.6L1014.93 473.45Z" fill="#F5F5F5"/>
<path d="M1060.37 473.45H1025.48L1024.97 461.025H1059.21L1060.37 473.45Z" fill="#F5F5F5"/>
<path d="M1105.81 473.45H1070.93L1069.57 461.025H1103.81L1105.81 473.45Z" fill="#F5F5F5"/>
<path d="M1151.25 473.45H1116.36L1114.17 461.025H1148.41L1151.25 473.45Z" fill="#F5F5F5"/>
<path d="M1196.69 473.45H1161.81L1158.78 461.025H1193.02L1196.69 473.45Z" fill="#F5F5F5"/>
<path d="M1242.13 473.45H1207.25L1203.38 461.025H1237.62L1242.13 473.45Z" fill="#F5F5F5"/>
<path d="M1287.57 473.45H1252.69L1247.98 461.025H1282.22L1287.57 473.45Z" fill="#F5F5F5"/>
<path d="M1333.02 473.45H1298.13L1292.58 461.025H1326.82L1333.02 473.45Z" fill="#F5F5F5"/>
<path d="M689.611 489.628H653.887L660.381 476.604H695.427L689.611 489.628Z" fill="#F5F5F5"/>
<path d="M736.143 489.628H700.422L706.034 476.604H741.08L736.143 489.628Z" fill="#F5F5F5"/>
<path d="M782.678 489.628H746.954L751.689 476.604H786.735L782.678 489.628Z" fill="#F5F5F5"/>
<path d="M829.212 489.628H793.488L797.341 476.604H832.391L829.212 489.628Z" fill="#F5F5F5"/>
<path d="M875.744 489.628H840.023L842.997 476.604H878.043L875.744 489.628Z" fill="#F5F5F5"/>
<path d="M922.279 489.628H886.555L888.652 476.604H923.698L922.279 489.628Z" fill="#F5F5F5"/>
<path d="M968.81 489.628H933.09L934.305 476.604H969.354L968.81 489.628Z" fill="#F5F5F5"/>
<path d="M1015.35 489.628H979.621L979.96 476.604H1015.01L1015.35 489.628Z" fill="#F5F5F5"/>
<path d="M1061.88 489.628H1026.16L1025.62 476.604H1060.66L1061.88 489.628Z" fill="#F5F5F5"/>
<path d="M1108.41 489.628H1072.69L1071.27 476.604H1106.32L1108.41 489.628Z" fill="#F5F5F5"/>
<path d="M1154.95 489.628H1119.22L1116.92 476.604H1151.97L1154.95 489.628Z" fill="#F5F5F5"/>
<path d="M1201.48 489.628H1165.76L1162.58 476.604H1197.63L1201.48 489.628Z" fill="#F5F5F5"/>
<path d="M1248.01 489.628H1212.29L1208.23 476.604H1243.28L1248.01 489.628Z" fill="#F5F5F5"/>
<path d="M1294.54 489.628H1258.82L1253.89 476.604H1288.93L1294.54 489.628Z" fill="#F5F5F5"/>
<path d="M1341.08 489.628H1305.36L1299.54 476.604H1334.59L1341.08 489.628Z" fill="#F5F5F5"/>
<path d="M682.027 506.606H645.427L652.239 492.938H688.133L682.027 506.606Z" fill="#F5F5F5"/>
<path d="M729.707 506.606H693.107L698.996 492.938H734.888L729.707 506.606Z" fill="#F5F5F5"/>
<path d="M777.387 506.606H740.786L745.754 492.938H781.646L777.387 506.606Z" fill="#F5F5F5"/>
<path d="M825.066 506.606H788.466L792.508 492.938H828.403L825.066 506.606Z" fill="#F5F5F5"/>
<path d="M872.746 506.606H836.146L839.266 492.938H875.161L872.746 506.606Z" fill="#F5F5F5"/>
<path d="M920.426 506.606H883.822L886.024 492.938H921.916L920.426 506.606Z" fill="#F5F5F5"/>
<path d="M968.105 506.606H931.502L932.781 492.938H968.673L968.105 506.606Z" fill="#F5F5F5"/>
<path d="M1015.78 506.606H979.182L979.536 492.938H1015.43L1015.78 506.606Z" fill="#F5F5F5"/>
<path d="M1063.46 506.606H1026.86L1026.29 492.938H1062.19L1063.46 506.606Z" fill="#F5F5F5"/>
<path d="M1111.14 506.606H1074.54L1073.05 492.938H1108.94L1111.14 506.606Z" fill="#F5F5F5"/>
<path d="M1158.82 506.606H1122.22L1119.81 492.938H1155.7L1158.82 506.606Z" fill="#F5F5F5"/>
<path d="M1206.5 506.606H1169.9L1166.56 492.938H1202.46L1206.5 506.606Z" fill="#F5F5F5"/>
<path d="M1254.18 506.606H1217.58L1213.32 492.938H1249.22L1254.18 506.606Z" fill="#F5F5F5"/>
<path d="M1301.86 506.606H1265.26L1260.08 492.938H1295.97L1301.86 506.606Z" fill="#F5F5F5"/>
<path d="M1349.54 506.606H1312.94L1306.84 492.938H1342.73L1349.54 506.606Z" fill="#F5F5F5"/>
<path d="M674.062 524.44H636.537L643.696 510.08H680.476L674.062 524.44Z" fill="#F5F5F5"/>
<path d="M722.947 524.44H685.422L691.608 510.08H728.391L722.947 524.44Z" fill="#F5F5F5"/>
<path d="M771.83 524.44H734.305L739.523 510.08H776.306L771.83 524.44Z" fill="#F5F5F5"/>
<path d="M820.713 524.44H783.187L787.437 510.08H824.218L820.713 524.44Z" fill="#F5F5F5"/>
<path d="M1112.45 524.44H832.07L835.352 510.08H1110.17L1112.45 524.44Z" fill="#F5F5F5"/>
<path d="M1162.9 524.44H1125.37L1122.83 510.08H1159.62L1162.9 524.44Z" fill="#F5F5F5"/>
<path d="M1211.78 524.44H1174.25L1170.75 510.08H1207.53L1211.78 524.44Z" fill="#F5F5F5"/>
<path d="M1260.66 524.44H1223.14L1218.66 510.08H1255.44L1260.66 524.44Z" fill="#F5F5F5"/>
<path d="M1309.55 524.44H1272.02L1266.58 510.08H1303.36L1309.55 524.44Z" fill="#F5F5F5"/>
<path d="M1358.43 524.44H1320.91L1314.49 510.08H1351.27L1358.43 524.44Z" fill="#F5F5F5"/>
<path d="M1119.03 565.921H822.596L830.919 529.48H1113.24L1119.03 565.921Z" fill="#F5F5F5"/>
<path d="M1339.87 0.565918H666.96C657.907 0.565918 650.568 7.89921 650.568 16.9453V434.221C650.568 443.267 657.907 450.6 666.96 450.6H1339.87C1348.93 450.6 1356.27 443.267 1356.27 434.221V16.9453C1356.27 7.89921 1348.93 0.565918 1339.87 0.565918Z" fill="white"/>
<path d="M1353.22 434.218V16.9483C1353.22 9.58031 1347.24 3.60742 1339.87 3.60742L666.964 3.60742C659.59 3.60742 653.612 9.58031 653.612 16.9483V434.218C653.612 441.586 659.59 447.559 666.964 447.559L1339.87 447.559C1347.24 447.559 1353.22 441.586 1353.22 434.218Z" fill="black"/>
<path d="M1332.78 21.2314H674.047V432.784H1332.78V21.2314Z" fill="white"/>
<defs>
<linearGradient id="paint0_linear_143_360" x1="1342" y1="13.1179" x2="1261.14" y2="577.185" gradientUnits="userSpaceOnUse">
<stop stop-color="#E6E6E6"/>
<stop offset="1" stop-color="#F5F5F5"/>
</linearGradient>
<linearGradient id="paint1_linear_143_360" x1="1342" y1="13.1179" x2="1261.14" y2="577.185" gradientUnits="userSpaceOnUse">
<stop stop-color="#4AA5A4"/>
<stop offset="0.548536" stop-color="#429A97"/>
<stop offset="1" stop-color="#3E9692"/>
</linearGradient>
<linearGradient id="paint2_linear_143_360" x1="1378.65" y1="272.935" x2="1035.83" y2="367.145" gradientUnits="userSpaceOnUse">
<stop stop-color="#F3F3F3"/>
<stop offset="0.498542" stop-color="white"/>
<stop offset="1" stop-color="#F3F3F3"/>
</linearGradient>
<linearGradient id="paint3_linear_143_360" x1="607.348" y1="364.064" x2="950.167" y2="269.854" gradientUnits="userSpaceOnUse">
<stop stop-color="#F3F3F3"/>
<stop offset="0.498542" stop-color="white"/>
<stop offset="1" stop-color="#F3F3F3"/>
</linearGradient>
<linearGradient id="paint4_linear_143_360" x1="1621" y1="384.999" x2="1731" y2="583.999" gradientUnits="userSpaceOnUse">
<stop stop-color="#F5F5F5"/>
<stop offset="0.548536" stop-color="white"/>
<stop offset="1" stop-color="#F3F3F3"/>
</linearGradient>
<linearGradient id="paint5_linear_143_360" x1="365" y1="252" x2="255" y2="52.9997" gradientUnits="userSpaceOnUse">
<stop stop-color="#F5F5F5"/>
<stop offset="0.548536" stop-color="white"/>
<stop offset="1" stop-color="#F3F3F3"/>
</linearGradient>
<linearGradient id="paint6_linear_143_360" x1="1428.6" y1="128.13" x2="1419.03" y2="148.528" gradientUnits="userSpaceOnUse">
<stop stop-color="#6C6C6C"/>
<stop offset="1" stop-color="#424B54"/>
</linearGradient>
<linearGradient id="paint7_linear_143_360" x1="1320.73" y1="41.5891" x2="1387.61" y2="153.386" gradientUnits="userSpaceOnUse">
<stop offset="0.24" stop-color="#EBBC60"/>
<stop offset="0.55" stop-color="white"/>
<stop offset="0.99" stop-color="#FFBC38"/>
</linearGradient>
<linearGradient id="paint8_linear_143_360" x1="449.454" y1="526.237" x2="873.644" y2="248.549" gradientUnits="userSpaceOnUse">
<stop stop-color="#D0D0D0"/>
<stop offset="1" stop-color="white"/>
</linearGradient>
<linearGradient id="paint9_linear_143_360" x1="1.12104e+06" y1="218442" x2="1.16374e+06" y2="63160.6" gradientUnits="userSpaceOnUse">
<stop stop-color="#DFDFDF"/>
<stop offset="1" stop-color="white"/>
</linearGradient>
</defs>
</svg>
