<svg width="1405" height="367" viewBox="0 0 1405 367" fill="none" xmlns="http://www.w3.org/2000/svg">
<rect y="113.783" width="75" height="75" rx="37.5" fill="#FFA800"/>
<path d="M42.024 139.083V164.283H34.896V144.591H30.216V139.083H42.024Z" fill="black"/>
<rect x="443.003" width="75" height="75" rx="37.5" fill="#FFA800"/>
<path d="M490.203 44.848V50.5H470.583V46.036L480.015 37.216C480.927 36.352 481.539 35.62 481.851 35.02C482.163 34.396 482.319 33.772 482.319 33.148C482.319 32.332 482.043 31.696 481.491 31.24C480.939 30.784 480.135 30.556 479.079 30.556C478.143 30.556 477.279 30.772 476.487 31.204C475.719 31.612 475.083 32.212 474.579 33.004L469.287 30.052C470.271 28.42 471.651 27.136 473.427 26.2C475.203 25.264 477.303 24.796 479.727 24.796C481.647 24.796 483.339 25.108 484.803 25.732C486.291 26.356 487.443 27.256 488.259 28.432C489.099 29.584 489.519 30.928 489.519 32.464C489.519 33.832 489.219 35.128 488.619 36.352C488.043 37.552 486.915 38.92 485.235 40.456L480.483 44.848H490.203Z" fill="black"/>
<rect x="785.779" y="291.414" width="75" height="75" rx="37.5" fill="#FFA800"/>
<path d="M826.427 326.794C828.515 327.226 830.111 328.09 831.215 329.386C832.343 330.658 832.907 332.206 832.907 334.03C832.907 335.518 832.499 336.898 831.683 338.17C830.891 339.442 829.667 340.474 828.011 341.266C826.379 342.034 824.351 342.418 821.927 342.418C820.151 342.418 818.387 342.202 816.635 341.77C814.907 341.338 813.407 340.726 812.135 339.934L814.727 334.57C815.711 335.242 816.815 335.758 818.039 336.118C819.287 336.478 820.511 336.658 821.711 336.658C822.935 336.658 823.907 336.43 824.627 335.974C825.347 335.518 825.707 334.87 825.707 334.03C825.707 332.398 824.423 331.582 821.855 331.582H818.867V327.082L823.367 322.222H813.431V316.714H831.647V321.178L826.427 326.794Z" fill="black"/>
<rect x="1124.55" width="75" height="75" rx="37.5" fill="#FFA800"/>
<path d="M1174.04 45.676H1170.29V50.5H1163.35V45.676H1150.03V41.032L1161.33 25.3H1168.71L1158.45 40.024H1163.56V35.74H1170.29V40.024H1174.04V45.676Z" fill="black"/>
<path d="M364.315 124.948C363.691 123.334 364.489 121.521 366.097 120.895C367.692 120.27 369.499 121.07 370.122 122.684C370.745 124.285 369.947 126.098 368.352 126.724C367.978 126.874 367.592 126.949 367.218 126.949C365.972 126.949 364.788 126.186 364.315 124.948ZM355.641 106.099C354.819 104.573 355.379 102.684 356.9 101.859C358.408 101.046 360.302 101.608 361.112 103.122V103.134C361.934 104.648 361.373 106.536 359.853 107.362C359.38 107.625 358.881 107.737 358.383 107.737C357.274 107.737 356.202 107.149 355.641 106.099ZM60.7289 99.132C59.2584 98.2314 58.7973 96.3053 59.6946 94.8294C60.5919 93.366 62.511 92.9032 63.9815 93.8037C65.452 94.7043 65.9131 96.6305 65.0034 98.1064C64.4177 99.0694 63.3958 99.5948 62.349 99.5948C61.7882 99.5948 61.2274 99.4447 60.7289 99.132ZM344.699 88.463C343.702 87.0622 344.039 85.111 345.435 84.1104C346.843 83.1098 348.787 83.435 349.784 84.8483C350.781 86.2492 350.457 88.2003 349.049 89.201C348.5 89.5887 347.865 89.7763 347.242 89.7763C346.27 89.7763 345.31 89.326 344.699 88.463ZM72.5055 81.5963C71.1596 80.5207 70.9353 78.557 72.007 77.2062C73.0787 75.8554 75.0353 75.6302 76.3811 76.7059C77.727 77.7815 77.9514 79.7452 76.8796 81.096C76.8796 81.096 76.8796 81.096 76.8796 81.1085C76.269 81.884 75.3593 82.2843 74.4371 82.2843C73.7641 82.2843 73.0787 82.0591 72.5055 81.5963ZM331.702 72.3157C330.543 71.0399 330.63 69.0637 331.901 67.9005C333.16 66.7373 335.129 66.8249 336.3 68.1007C337.459 69.3639 337.372 71.3526 336.101 72.5158C335.502 73.0662 334.755 73.3288 333.995 73.3288C333.16 73.3288 332.312 72.9911 331.702 72.3157ZM86.3382 65.6492C85.1294 64.4109 85.1544 62.4347 86.3881 61.2215C87.6094 60.0083 89.5908 60.0333 90.7872 61.2715C91.996 62.4973 91.971 64.486 90.7373 65.6867C90.1391 66.2871 89.354 66.5872 88.5689 66.5872C87.7589 66.5872 86.9489 66.2746 86.3382 65.6492ZM316.822 57.8945C315.514 56.7688 315.364 54.7926 316.486 53.4793C317.595 52.1785 319.564 52.0159 320.872 53.1416C322.181 54.2548 322.33 56.231 321.221 57.5443C320.598 58.2697 319.726 58.6449 318.841 58.6449C318.131 58.6449 317.408 58.3948 316.822 57.8945ZM102.015 51.5156C100.969 50.1398 101.23 48.1761 102.601 47.1254C103.959 46.0748 105.916 46.3375 106.963 47.7133C108.01 49.0891 107.748 51.0528 106.377 52.1035C105.816 52.5287 105.156 52.7413 104.495 52.7413C103.561 52.7413 102.626 52.3161 102.015 51.5156ZM300.31 45.4119C298.864 44.4613 298.478 42.5227 299.425 41.0718C300.372 39.6334 302.304 39.2457 303.737 40.1962C305.17 41.1468 305.569 43.0855 304.622 44.5239C304.024 45.4369 303.027 45.9247 302.017 45.9247C301.432 45.9247 300.833 45.7621 300.31 45.4119ZM119.3 39.4208C118.428 37.9199 118.926 36.0062 120.422 35.1307V35.1432C121.905 34.2677 123.811 34.768 124.684 36.2564C125.544 37.7448 125.045 39.6584 123.562 40.5339C123.076 40.8216 122.528 40.9592 121.992 40.9592C120.92 40.9592 119.886 40.4089 119.3 39.4208ZM282.39 35.0681C280.844 34.2927 280.221 32.4165 280.981 30.8656C281.742 29.3272 283.611 28.6893 285.156 29.4647C286.701 30.2277 287.325 32.1038 286.564 33.6548C286.016 34.7554 284.919 35.3933 283.773 35.3933C283.299 35.3933 282.826 35.2808 282.39 35.0681ZM137.943 29.5398C137.258 27.9513 137.993 26.1127 139.576 25.4373C141.158 24.7619 142.99 25.4873 143.676 27.0758C144.349 28.6643 143.613 30.5029 142.031 31.1908C141.632 31.3534 141.221 31.4409 140.809 31.4409C139.601 31.4409 138.454 30.728 137.943 29.5398ZM263.348 27.0133C261.715 26.4504 260.855 24.6618 261.429 23.0358C261.989 21.4099 263.771 20.5468 265.392 21.1097C267.024 21.685 267.871 23.4736 267.311 25.0996C266.862 26.3879 265.653 27.1884 264.37 27.1884C264.033 27.1884 263.684 27.1383 263.348 27.0133ZM157.658 22.0602C157.184 20.4092 158.132 18.6707 159.789 18.1954C161.446 17.7201 163.166 18.6707 163.652 20.3342C164.126 21.9977 163.166 23.7238 161.521 24.199C161.222 24.2866 160.935 24.3241 160.649 24.3241C159.303 24.3241 158.057 23.4361 157.658 22.0602ZM243.434 21.3973C241.751 21.0346 240.68 19.3836 241.041 17.6826C241.402 15.9941 243.06 14.9309 244.742 15.2936C246.424 15.6564 247.496 17.3074 247.135 19.0084C246.823 20.4718 245.527 21.4724 244.094 21.4724C243.87 21.4724 243.658 21.4474 243.434 21.3973ZM178.145 17.1072C177.884 15.3937 179.043 13.7927 180.738 13.5301C182.445 13.2549 184.04 14.4181 184.302 16.1317C184.576 17.8327 183.417 19.4337 181.71 19.7088C181.548 19.7338 181.386 19.7463 181.224 19.7463C179.716 19.7463 178.395 18.6457 178.145 17.1072ZM222.984 18.308C221.276 18.1579 220.005 16.632 220.155 14.9184C220.304 13.1924 221.825 11.9166 223.532 12.0792C225.252 12.2293 226.51 13.7427 226.361 15.4688C226.224 17.0947 224.853 18.3205 223.258 18.3205C223.17 18.3205 223.071 18.308 222.984 18.308ZM199.082 14.7183C199.032 12.9923 200.378 11.5414 202.097 11.4913C203.817 11.4288 205.263 12.7796 205.312 14.5057C205.375 16.2317 204.029 17.6826 202.309 17.7451C202.272 17.7451 202.234 17.7451 202.197 17.7451C200.527 17.7451 199.144 16.4068 199.082 14.7183Z" fill="#FFA800"/>
<path d="M557.026 360.061C556.926 358.335 558.235 356.859 559.942 356.746C561.662 356.646 563.145 357.959 563.245 359.673C563.357 361.399 562.048 362.887 560.329 362.988C560.266 362.988 560.204 363 560.142 363C558.509 363 557.126 361.724 557.026 360.061ZM538.508 362.988C536.788 362.875 535.492 361.387 535.592 359.66C535.704 357.947 537.174 356.634 538.894 356.734C540.614 356.846 541.922 358.335 541.81 360.061C541.71 361.712 540.34 362.988 538.707 362.988C538.645 362.988 538.57 362.988 538.508 362.988ZM578.349 357.784C578.025 356.096 579.134 354.457 580.828 354.132C582.523 353.819 584.143 354.933 584.467 356.621C584.791 358.322 583.682 359.961 581.987 360.273C581.788 360.323 581.601 360.336 581.402 360.336C579.931 360.336 578.623 359.285 578.349 357.784ZM516.849 360.261C515.166 359.936 514.057 358.297 514.381 356.596C514.693 354.908 516.325 353.794 518.02 354.107C519.703 354.432 520.812 356.071 520.5 357.759C520.214 359.26 518.905 360.311 517.435 360.311C517.248 360.311 517.048 360.286 516.849 360.261ZM599.235 352.844C598.699 351.193 599.596 349.429 601.229 348.904C602.861 348.366 604.618 349.267 605.154 350.918C605.69 352.556 604.793 354.32 603.148 354.858C602.836 354.958 602.512 355.008 602.188 355.008C600.88 355.008 599.658 354.17 599.235 352.844ZM495.713 354.82C494.068 354.282 493.171 352.519 493.707 350.868C494.243 349.229 496 348.329 497.633 348.866C499.265 349.404 500.162 351.168 499.639 352.806C499.203 354.132 497.981 354.97 496.673 354.97C496.349 354.97 496.025 354.92 495.713 354.82ZM619.311 345.289C618.588 343.726 619.249 341.862 620.806 341.124C622.364 340.386 624.221 341.062 624.956 342.625C625.691 344.189 625.019 346.052 623.461 346.778C623.037 346.99 622.588 347.078 622.14 347.078C620.968 347.078 619.847 346.415 619.311 345.289ZM475.413 346.74C473.855 346.002 473.195 344.139 473.93 342.575C474.665 341.012 476.522 340.349 478.067 341.087C479.625 341.825 480.298 343.676 479.563 345.239C479.027 346.377 477.905 347.04 476.746 347.04C476.298 347.04 475.849 346.94 475.413 346.74ZM638.291 335.258C637.368 333.795 637.805 331.869 639.25 330.943C640.696 330.018 642.627 330.443 643.549 331.906C644.472 333.357 644.048 335.283 642.59 336.221C642.079 336.547 641.493 336.709 640.92 336.709C639.898 336.709 638.889 336.196 638.291 335.258ZM456.309 336.171C454.851 335.246 454.427 333.307 455.349 331.856C456.271 330.393 458.203 329.968 459.648 330.893C461.107 331.819 461.53 333.757 460.608 335.208C460.01 336.146 459 336.659 457.979 336.659C457.405 336.659 456.82 336.497 456.309 336.171ZM655.862 322.913C654.765 321.588 654.952 319.611 656.273 318.511C657.607 317.41 659.563 317.598 660.66 318.923C661.756 320.262 661.569 322.225 660.248 323.326C659.663 323.814 658.965 324.052 658.267 324.052C657.37 324.052 656.472 323.664 655.862 322.913ZM438.663 323.276C437.342 322.188 437.155 320.212 438.251 318.873C439.348 317.548 441.317 317.36 442.638 318.461C443.971 319.561 444.146 321.537 443.049 322.863C442.439 323.614 441.554 324.001 440.656 324.001C439.946 324.001 439.248 323.764 438.663 323.276ZM671.763 308.48C670.505 307.291 670.442 305.315 671.626 304.052C672.798 302.801 674.767 302.739 676.025 303.914C677.284 305.103 677.346 307.079 676.162 308.342C675.552 308.992 674.717 309.318 673.894 309.318C673.122 309.318 672.361 309.042 671.763 308.48ZM422.761 308.279C421.577 307.029 421.64 305.053 422.898 303.864C424.144 302.676 426.126 302.739 427.297 304.002C428.481 305.265 428.419 307.241 427.16 308.417C426.562 308.992 425.789 309.268 425.029 309.268C424.194 309.268 423.372 308.942 422.761 308.279ZM685.733 292.17C684.35 291.144 684.038 289.193 685.06 287.792C685.06 287.792 685.06 287.792 685.048 287.792C686.07 286.391 688.014 286.091 689.409 287.104C690.793 288.13 691.104 290.081 690.082 291.482C689.472 292.32 688.525 292.758 687.565 292.758C686.929 292.758 686.294 292.57 685.733 292.17ZM408.841 291.407C407.819 290.018 408.131 288.055 409.527 287.042C410.91 286.029 412.866 286.329 413.876 287.73C414.885 289.13 414.574 291.082 413.19 292.095C412.63 292.507 411.994 292.695 411.358 292.695C410.399 292.695 409.439 292.245 408.841 291.407ZM697.572 274.234C696.064 273.396 695.516 271.495 696.351 269.981C697.186 268.468 699.08 267.918 700.588 268.756C702.083 269.594 702.632 271.495 701.809 273.008C701.236 274.034 700.177 274.622 699.08 274.622C698.569 274.622 698.046 274.497 697.572 274.234ZM397.127 272.921C396.292 271.407 396.84 269.506 398.348 268.668C399.856 267.843 401.75 268.393 402.573 269.906C403.408 271.42 402.859 273.321 401.351 274.146C400.878 274.409 400.355 274.534 399.856 274.534C398.747 274.534 397.688 273.959 397.127 272.921ZM707.081 254.96C705.473 254.322 704.7 252.508 705.323 250.895C705.959 249.294 707.778 248.506 709.373 249.144C710.969 249.782 711.754 251.608 711.118 253.209C710.632 254.435 709.461 255.185 708.227 255.185C707.841 255.185 707.454 255.11 707.081 254.96ZM387.805 253.096C387.17 251.483 387.955 249.669 389.563 249.031C391.158 248.393 392.965 249.181 393.6 250.782C394.236 252.396 393.451 254.209 391.855 254.847C391.482 254.997 391.095 255.072 390.709 255.072C389.463 255.072 388.291 254.322 387.805 253.096Z" fill="#FFA800"/>
<path d="M731.02 125.452C729.412 124.814 728.627 123.001 729.263 121.387C729.898 119.786 731.705 118.998 733.313 119.636C734.908 120.274 735.693 122.088 735.057 123.689C734.571 124.914 733.4 125.665 732.166 125.665C731.78 125.665 731.394 125.602 731.02 125.452ZM1046.79 123.589H1046.78C1046.14 121.975 1046.93 120.162 1048.53 119.524C1050.13 118.886 1051.94 119.674 1052.58 121.275C1053.21 122.876 1052.43 124.702 1050.83 125.327C1050.46 125.49 1050.06 125.552 1049.68 125.552C1048.44 125.552 1047.27 124.802 1046.79 123.589ZM739.805 105.815C738.298 104.977 737.749 103.076 738.572 101.563C739.407 100.049 741.301 99.4991 742.809 100.337C744.317 101.163 744.865 103.064 744.03 104.577C743.469 105.615 742.398 106.203 741.301 106.203C740.79 106.203 740.279 106.078 739.805 105.815ZM1037.81 104.502C1036.97 102.989 1037.52 101.088 1039.03 100.25C1040.54 99.4116 1042.43 99.9619 1043.27 101.475C1044.09 102.989 1043.54 104.89 1042.05 105.728C1041.56 105.991 1041.05 106.116 1040.54 106.116C1039.44 106.116 1038.38 105.528 1037.81 104.502ZM750.971 87.4418C749.588 86.4287 749.277 84.4651 750.298 83.0767C750.298 83.0767 750.298 83.0767 750.286 83.0767C751.308 81.6759 753.252 81.3632 754.648 82.3763C756.031 83.4019 756.342 85.3531 755.333 86.7539C754.722 87.5919 753.775 88.0422 752.816 88.0422C752.168 88.0422 751.532 87.8421 750.971 87.4418ZM1026.51 86.6914C1025.5 85.2906 1025.81 83.3394 1027.19 82.3138C1028.59 81.3006 1030.53 81.6133 1031.55 83.0017C1032.56 84.4025 1032.25 86.3537 1030.87 87.3793C1030.31 87.7796 1029.67 87.9672 1029.03 87.9672C1028.08 87.9672 1027.12 87.5294 1026.51 86.6914ZM764.355 70.6192C763.097 69.431 763.035 67.4548 764.218 66.1915C765.39 64.9408 767.371 64.8782 768.617 66.0539C769.876 67.2422 769.938 69.2183 768.755 70.4816C768.144 71.132 767.321 71.4697 766.486 71.4697C765.726 71.4697 764.954 71.182 764.355 70.6192ZM1013.08 70.4316C1011.9 69.1683 1011.96 67.1921 1013.22 66.0039C1014.47 64.8282 1016.44 64.8782 1017.62 66.1415C1018.8 67.4048 1018.74 69.3809 1017.48 70.5692C1016.88 71.132 1016.11 71.4072 1015.35 71.4072C1014.52 71.4072 1013.69 71.082 1013.08 70.4316ZM779.709 55.5976C778.612 54.2718 778.799 52.2956 780.12 51.195C780.12 51.195 780.12 51.195 780.12 51.2075C781.441 50.0943 783.41 50.2819 784.506 51.6077C785.603 52.946 785.416 54.9097 784.095 56.0104V56.0229C783.509 56.4982 782.812 56.7358 782.114 56.7358C781.216 56.7358 780.332 56.3481 779.709 55.5976ZM997.73 55.9729C996.409 54.8597 996.222 52.896 997.319 51.5702C998.416 50.2319 1000.38 50.0443 1001.71 51.1574C1001.71 51.1574 1001.71 51.1574 1001.71 51.1449C1003.03 52.2456 1003.21 54.2218 1002.12 55.5476C1001.51 56.298 1000.61 56.6858 999.712 56.6858C999.014 56.6858 998.316 56.4481 997.73 55.9729ZM796.806 42.6273C795.884 41.1764 796.308 39.2377 797.766 38.3122C799.212 37.3866 801.143 37.8119 802.065 39.2753C802.987 40.7261 802.564 42.6648 801.106 43.5904C800.595 43.9156 800.009 44.0782 799.436 44.0782C798.414 44.0782 797.405 43.5654 796.806 42.6273ZM980.707 43.5403C979.249 42.6148 978.826 40.6886 979.748 39.2252C980.67 37.7744 982.602 37.3366 984.047 38.2622C985.505 39.1877 985.929 41.1264 985.007 42.5773C984.421 43.5153 983.412 44.0281 982.377 44.0281C981.804 44.0281 981.231 43.878 980.707 43.5403ZM815.387 31.9083C814.652 30.3449 815.312 28.4812 816.87 27.7433C818.428 27.0054 820.285 27.6808 821.02 29.2317C821.755 30.7951 821.082 32.6588 819.525 33.3967C819.101 33.5968 818.652 33.6969 818.204 33.6969C817.032 33.6969 815.911 33.034 815.387 31.9083ZM962.264 33.3592C960.706 32.6212 960.045 30.7576 960.768 29.1942C961.503 27.6307 963.36 26.9678 964.918 27.6933C966.476 28.4312 967.149 30.2948 966.413 31.8583C965.878 32.984 964.756 33.6594 963.585 33.6594C963.148 33.6594 962.687 33.5593 962.264 33.3592ZM835.164 23.6033C834.628 21.9648 835.526 20.2012 837.171 19.6634C838.803 19.1381 840.56 20.0261 841.096 21.6771C841.62 23.3156 840.722 25.0792 839.09 25.617C838.778 25.7171 838.454 25.7671 838.13 25.7671C836.809 25.7671 835.588 24.9291 835.164 23.6033ZM942.686 25.5795C941.053 25.0417 940.156 23.2781 940.68 21.6396C941.215 20.0011 942.973 19.1006 944.605 19.6259C946.25 20.1637 947.147 21.9273 946.611 23.5658C946.188 24.8916 944.966 25.7296 943.645 25.7296C943.334 25.7296 943.01 25.6796 942.686 25.5795ZM855.826 17.8873C855.515 16.1863 856.624 14.5478 858.306 14.2226C860.001 13.9099 861.633 15.0231 861.957 16.7116C862.269 18.4127 861.16 20.0512 859.478 20.3763C859.278 20.4139 859.079 20.4264 858.892 20.4264C857.421 20.4264 856.113 19.3883 855.826 17.8873ZM922.286 20.3513C920.591 20.0261 919.482 18.3876 919.806 16.6991C920.117 14.9981 921.75 13.8849 923.445 14.1976C925.14 14.5228 926.249 16.1613 925.925 17.8498C925.638 19.3507 924.342 20.4014 922.871 20.4014C922.672 20.4014 922.485 20.3889 922.286 20.3513ZM877.049 14.8105C876.949 13.097 878.245 11.6086 879.965 11.496C881.685 11.3959 883.168 12.6967 883.267 14.4228C883.38 16.1488 882.071 17.6372 880.351 17.7373C880.289 17.7498 880.227 17.7498 880.152 17.7498C878.519 17.7498 877.149 16.474 877.049 14.8105ZM901.4 17.7373C899.692 17.6247 898.384 16.1488 898.483 14.4228C898.596 12.6967 900.066 11.3834 901.786 11.496C903.506 11.596 904.814 13.0844 904.702 14.8105C904.602 16.4615 903.231 17.7373 901.599 17.7373C901.537 17.7373 901.474 17.7373 901.4 17.7373Z" fill="#FFA800"/>
<path d="M1239.94 360.061C1239.84 358.335 1241.14 356.859 1242.86 356.746C1244.58 356.646 1246.06 357.959 1246.16 359.673C1246.27 361.399 1244.96 362.887 1243.24 362.988C1243.18 362.988 1243.12 363 1243.06 363C1241.41 363 1240.04 361.724 1239.94 360.061ZM1221.42 362.988C1219.7 362.875 1218.39 361.387 1218.51 359.66C1218.62 357.947 1220.09 356.634 1221.81 356.734C1223.53 356.846 1224.84 358.335 1224.72 360.061C1224.63 361.712 1223.25 362.988 1221.62 362.988C1221.56 362.988 1221.48 362.988 1221.42 362.988ZM1261.26 357.784C1260.94 356.096 1262.05 354.457 1263.74 354.132C1265.44 353.819 1267.06 354.933 1267.38 356.621C1267.71 358.322 1266.6 359.961 1264.9 360.273C1264.7 360.323 1264.52 360.336 1264.32 360.336C1262.85 360.336 1261.54 359.285 1261.26 357.784ZM1199.76 360.261C1198.08 359.936 1196.97 358.297 1197.28 356.596C1197.61 354.908 1199.24 353.794 1200.94 354.107C1202.62 354.432 1203.73 356.071 1203.41 357.759C1203.13 359.26 1201.82 360.311 1200.35 360.311C1200.16 360.311 1199.96 360.286 1199.76 360.261ZM1282.14 352.844C1281.61 351.193 1282.51 349.429 1284.14 348.904C1285.79 348.366 1287.53 349.267 1288.07 350.918C1288.6 352.556 1287.71 354.32 1286.06 354.858C1285.75 354.958 1285.43 355.008 1285.1 355.008C1283.79 355.008 1282.57 354.17 1282.14 352.844ZM1178.62 354.82C1176.98 354.282 1176.09 352.519 1176.62 350.868C1177.16 349.229 1178.91 348.329 1180.55 348.866C1182.18 349.404 1183.08 351.168 1182.54 352.806C1182.12 354.132 1180.9 354.97 1179.59 354.97C1179.26 354.97 1178.94 354.92 1178.62 354.82ZM1302.23 345.289C1301.5 343.726 1302.16 341.862 1303.72 341.124C1305.28 340.386 1307.14 341.062 1307.87 342.625C1308.59 344.189 1307.93 346.052 1306.38 346.778C1305.95 346.99 1305.49 347.078 1305.05 347.078C1303.88 347.078 1302.76 346.415 1302.23 345.289ZM1158.33 346.74C1156.77 346.002 1156.11 344.139 1156.84 342.575C1157.58 341.012 1159.44 340.349 1160.98 341.087C1162.54 341.825 1163.21 343.676 1162.48 345.239C1161.94 346.377 1160.82 347.04 1159.66 347.04C1159.21 347.04 1158.76 346.94 1158.33 346.74ZM1321.21 335.258C1320.28 333.795 1320.72 331.869 1322.16 330.943C1323.62 330.018 1325.54 330.443 1326.46 331.906C1327.39 333.357 1326.96 335.283 1325.5 336.221C1324.99 336.547 1324.41 336.709 1323.83 336.709C1322.81 336.709 1321.8 336.196 1321.21 335.258ZM1139.22 336.171C1137.77 335.246 1137.34 333.307 1138.26 331.856C1139.19 330.393 1141.12 329.968 1142.56 330.893C1144.02 331.819 1144.44 333.757 1143.52 335.208C1142.92 336.146 1141.92 336.659 1140.89 336.659C1140.32 336.659 1139.73 336.497 1139.22 336.171ZM1338.78 322.913C1337.68 321.588 1337.87 319.611 1339.19 318.511C1340.52 317.41 1342.48 317.598 1343.57 318.936C1344.67 320.262 1344.48 322.225 1343.16 323.326C1342.58 323.814 1341.88 324.052 1341.18 324.052C1340.28 324.052 1339.39 323.664 1338.78 322.913ZM1121.58 323.276C1120.26 322.175 1120.07 320.212 1121.17 318.873C1122.26 317.548 1124.23 317.36 1125.55 318.461C1126.89 319.561 1127.06 321.537 1125.96 322.863C1125.35 323.614 1124.46 324.001 1123.57 324.001C1122.86 324.001 1122.16 323.764 1121.58 323.276ZM1354.68 308.48C1353.42 307.291 1353.36 305.315 1354.54 304.052C1355.71 302.801 1357.68 302.739 1358.94 303.914C1360.2 305.103 1360.26 307.079 1359.08 308.342C1358.47 308.992 1357.63 309.318 1356.81 309.318C1356.05 309.318 1355.28 309.042 1354.68 308.48ZM1105.68 308.279C1104.49 307.029 1104.55 305.053 1105.81 303.864C1107.07 302.676 1109.04 302.739 1110.21 304.002C1111.4 305.265 1111.33 307.241 1110.07 308.43C1109.48 308.992 1108.7 309.268 1107.94 309.268C1107.11 309.268 1106.29 308.942 1105.68 308.279ZM1368.65 292.17C1367.26 291.144 1366.95 289.193 1367.96 287.792C1368.98 286.391 1370.93 286.091 1372.32 287.104C1373.71 288.13 1374.02 290.081 1373.01 291.482C1372.4 292.32 1371.44 292.758 1370.48 292.758C1369.84 292.758 1369.21 292.57 1368.65 292.17ZM1091.76 291.407H1091.74C1090.73 290.018 1091.05 288.055 1092.44 287.042C1093.82 286.029 1095.78 286.329 1096.79 287.73C1097.8 289.13 1097.49 291.082 1096.11 292.095C1095.54 292.507 1094.91 292.695 1094.27 292.695C1093.31 292.695 1092.37 292.245 1091.76 291.407ZM1380.49 274.234C1378.98 273.396 1378.43 271.495 1379.27 269.981C1380.1 268.468 1381.99 267.918 1383.5 268.756C1385 269.594 1385.56 271.495 1384.72 273.008C1384.15 274.034 1383.09 274.622 1381.99 274.622C1381.48 274.622 1380.96 274.497 1380.49 274.234ZM1080.03 272.921C1079.21 271.407 1079.75 269.506 1081.26 268.668C1082.77 267.843 1084.66 268.393 1085.49 269.906C1086.32 271.42 1085.77 273.321 1084.27 274.146C1083.79 274.409 1083.27 274.534 1082.77 274.534C1081.66 274.534 1080.6 273.959 1080.03 272.921ZM1389.98 254.96C1388.39 254.322 1387.6 252.508 1388.24 250.895C1388.87 249.294 1390.69 248.506 1392.29 249.144C1393.88 249.782 1394.67 251.608 1394.03 253.209C1393.55 254.435 1392.38 255.185 1391.14 255.185C1390.76 255.185 1390.37 255.11 1389.98 254.96ZM1070.72 253.096C1070.08 251.483 1070.87 249.669 1072.46 249.031C1074.07 248.393 1075.88 249.181 1076.51 250.782C1077.15 252.396 1076.37 254.209 1074.77 254.847C1074.38 254.997 1074 255.072 1073.62 255.072C1072.38 255.072 1071.21 254.322 1070.72 253.096Z" fill="#FFA800"/>
<path d="M208.029 362.074C165.01 362.074 123.786 346.089 91.9834 317.071C60.3923 288.254 40.6277 249.005 36.3283 206.555C36.2286 205.529 36.9763 204.603 37.9982 204.503C39.0201 204.403 39.9423 205.154 40.042 206.179C48.8152 292.907 121.032 358.321 208.029 358.321C301.132 358.321 376.889 282.288 376.889 188.844C376.889 187.806 377.723 186.968 378.758 186.968C379.792 186.968 380.627 187.806 380.627 188.844C380.627 284.364 303.201 362.074 208.029 362.074Z" fill="#424B54"/>
<path d="M378.758 190.72C377.724 190.72 376.889 189.882 376.889 188.844C376.889 147.732 391.482 107.882 418.001 76.6259C418.674 75.838 419.845 75.7379 420.63 76.4133C421.415 77.0887 421.515 78.2644 420.842 79.0649C394.909 109.646 380.627 148.632 380.627 188.856C380.627 189.882 379.792 190.72 378.758 190.72Z" fill="#424B54"/>
<path d="M720.216 190.72C719.182 190.72 718.347 189.882 718.347 188.844C718.347 95.3999 642.59 19.3665 549.487 19.3665C543.082 19.3665 536.614 19.7292 530.296 20.4546C529.261 20.5797 528.339 19.8292 528.227 18.8036C528.115 17.778 528.85 16.8399 529.872 16.7274C536.34 15.9894 542.932 15.6267 549.487 15.6267C644.659 15.6267 722.085 93.3362 722.085 188.856C722.085 189.882 721.25 190.72 720.216 190.72Z" fill="#424B54"/>
<path d="M428.481 85.5565C427.982 85.5565 427.496 85.3564 427.135 84.9812L412.629 69.8846C412.193 69.4218 412.006 68.7714 412.156 68.1461C412.305 67.5207 412.754 67.0204 413.352 66.8078L437.092 58.3902C437.777 58.14 438.55 58.3276 439.061 58.853C439.572 59.3783 439.721 60.1538 439.46 60.8417L430.225 84.3558C429.989 84.9562 429.478 85.3814 428.855 85.5065C428.718 85.544 428.593 85.5565 428.481 85.5565ZM417.327 69.3718L427.795 80.2659L434.463 63.2931L417.327 69.3718Z" fill="#424B54"/>
<path d="M760.879 301.725C760.355 301.725 759.819 301.499 759.458 301.062C732.952 269.805 718.346 229.944 718.346 188.844C718.346 187.806 719.181 186.968 720.215 186.968C721.25 186.968 722.085 187.806 722.085 188.844C722.085 229.056 736.366 268.054 762.299 298.635C762.972 299.423 762.873 300.611 762.088 301.287C761.739 301.575 761.302 301.725 760.879 301.725Z" fill="#424B54"/>
<path d="M890.945 362.074C882.807 362.074 874.632 361.498 866.631 360.373C865.61 360.222 864.899 359.284 865.036 358.259C865.186 357.233 866.121 356.508 867.142 356.658C874.969 357.758 882.969 358.321 890.932 358.321C984.035 358.321 1059.79 282.288 1059.79 188.844C1059.79 187.806 1060.63 186.968 1061.66 186.968C1062.7 186.968 1063.53 187.806 1063.53 188.844C1063.54 284.364 986.117 362.074 890.945 362.074Z" fill="#424B54"/>
<path d="M779.173 319.398C778.961 319.398 778.75 319.361 778.55 319.286L754.81 310.868C754.212 310.655 753.763 310.155 753.614 309.53C753.464 308.904 753.651 308.254 754.087 307.791L768.593 292.694C769.029 292.232 769.677 292.032 770.3 292.157C770.924 292.282 771.447 292.719 771.671 293.307L780.906 316.822C781.18 317.51 781.018 318.285 780.507 318.811C780.158 319.198 779.672 319.398 779.173 319.398ZM758.786 308.317L775.921 314.395L769.254 297.422L758.786 308.317Z" fill="#424B54"/>
<path d="M1061.67 190.72C1060.64 190.72 1059.8 189.882 1059.8 188.844C1059.8 147.732 1074.4 107.882 1100.92 76.6259C1101.59 75.838 1102.76 75.7379 1103.55 76.4133C1104.33 77.0887 1104.43 78.2644 1103.76 79.0649C1077.82 109.646 1063.54 148.632 1063.54 188.856C1063.54 189.882 1062.71 190.72 1061.67 190.72Z" fill="#424B54"/>
<path d="M1403.13 190.72C1402.1 190.72 1401.26 189.882 1401.26 188.844C1401.26 95.3998 1325.51 19.3665 1232.4 19.3665C1225.59 19.3665 1218.72 19.7793 1211.99 20.5923C1210.97 20.7048 1210.03 19.9794 1209.91 18.9538C1209.78 17.9282 1210.52 16.9901 1211.54 16.865C1218.42 16.027 1225.44 15.6143 1232.4 15.6143C1327.57 15.6143 1405 93.3236 1405 188.844C1405 189.882 1404.17 190.72 1403.13 190.72Z" fill="#424B54"/>
<path d="M1111.4 85.5565C1110.9 85.5565 1110.41 85.3564 1110.05 84.9812L1095.54 69.8846C1095.11 69.4218 1094.92 68.7714 1095.07 68.1461C1095.22 67.5207 1095.67 67.0204 1096.27 66.8078L1120.01 58.3902C1120.69 58.14 1121.47 58.3276 1121.98 58.853C1122.49 59.3783 1122.64 60.1538 1122.38 60.8417L1113.14 84.3558C1112.9 84.9562 1112.39 85.3814 1111.77 85.5065C1111.63 85.544 1111.51 85.5565 1111.4 85.5565ZM1100.24 69.3718L1110.71 80.2659L1117.38 63.2931L1100.24 69.3718Z" fill="#424B54"/>
<path d="M37.9241 206.355C33.4627 206.355 29.8238 202.703 29.8238 198.225C29.8238 193.747 33.4627 190.095 37.9241 190.095C42.3854 190.095 46.0243 193.747 46.0243 198.225C46.0243 202.703 42.3854 206.355 37.9241 206.355ZM37.9241 193.847C35.5189 193.847 33.5624 195.811 33.5624 198.225C33.5624 200.639 35.5189 202.603 37.9241 202.603C40.3292 202.603 42.2857 200.639 42.2857 198.225C42.2857 195.811 40.3292 193.847 37.9241 193.847Z" fill="#424B54"/>
<path d="M523.94 27.4967C519.478 27.4967 515.839 23.8445 515.839 19.3669C515.839 14.8892 519.478 11.2371 523.94 11.2371C528.401 11.2371 532.04 14.8892 532.04 19.3669C532.04 23.8445 528.401 27.4967 523.94 27.4967ZM523.94 14.9893C521.535 14.9893 519.578 16.9529 519.578 19.3669C519.578 21.7808 521.535 23.7444 523.94 23.7444C526.345 23.7444 528.301 21.7808 528.301 19.3669C528.301 16.9529 526.345 14.9893 523.94 14.9893Z" fill="#424B54"/>
<path d="M860.412 365.201C855.951 365.201 852.312 361.548 852.312 357.071C852.312 352.593 855.951 348.941 860.412 348.941C864.874 348.941 868.512 352.593 868.512 357.071C868.512 361.548 864.874 365.201 860.412 365.201ZM860.412 352.693C858.007 352.693 856.051 354.657 856.051 357.071C856.051 359.485 858.007 361.448 860.412 361.448C862.817 361.448 864.774 359.485 864.774 357.071C864.774 354.657 862.817 352.693 860.412 352.693Z" fill="#424B54"/>
<path d="M1205.61 27.4967C1201.15 27.4967 1197.51 23.8445 1197.51 19.3669C1197.51 14.8892 1201.15 11.2371 1205.61 11.2371C1210.07 11.2371 1213.71 14.8892 1213.71 19.3669C1213.71 23.8445 1210.07 27.4967 1205.61 27.4967ZM1205.61 14.9893C1203.2 14.9893 1201.25 16.9529 1201.25 19.3669C1201.25 21.7808 1203.2 23.7444 1205.61 23.7444C1208.01 23.7444 1209.97 21.7808 1209.97 19.3669C1209.97 16.9529 1208.01 14.9893 1205.61 14.9893Z" fill="#424B54"/>
</svg>
